<?xml version="1.0" standalone="no"?>
<!DOCTYPE svg PUBLIC "-//W3C//DTD SVG 1.1//EN" "http://www.w3.org/Graphics/SVG/1.1/DTD/svg11.dtd" >
<svg xmlns="http://www.w3.org/2000/svg">
<metadata></metadata>
<defs>
<font id="reefbold" horiz-adv-x="979" >
<font-face units-per-em="2048" ascent="1638" descent="-410" />
<missing-glyph horiz-adv-x="532" />
<glyph unicode="&#xfb01;" horiz-adv-x="930" d="M90 94q0 -39 27 -67q28 -27 67 -27q38 0 66 27q27 28 27 67v726h151q39 0 66 28q27 27 27 66t-27 66q-27 28 -66 28h-150q5 90 71 152q66 63 157 63h1q39 0 66 27q28 28 28 67q0 38 -28 66q-27 27 -66 27h-1q-172 0 -294 -122t-122 -294v-900zM629 1217q0 44 31 75t75 31 q43 0 74 -31t31 -75q0 -43 -31 -74t-74 -31q-44 0 -75 31t-31 74zM641 95v833q0 39 27 66q28 27 67 27q38 0 66 -27q27 -27 27 -66v-833q0 -39 -27 -67q-28 -27 -66 -27q-39 0 -67 27q-27 28 -27 67z" />
<glyph unicode="&#xfb02;" horiz-adv-x="1214" d="M80 94q0 -39 27 -67q28 -27 67 -27q38 0 66 27q27 28 27 67v726h151q39 0 66 28q27 27 27 66t-27 66q-27 28 -66 28h-150q5 90 71 152q66 63 157 63h1q39 0 66 27q28 28 28 67q0 38 -28 66q-27 27 -66 27h-1q-172 0 -294 -122t-122 -294v-900zM673 416v901q0 38 27 66 q28 27 67 27q38 0 66 -27q27 -28 27 -66v-901q0 -95 67 -162t162 -67h1q39 0 66 -27q28 -28 28 -66q0 -39 -28 -67q-27 -27 -66 -27h-1q-172 0 -294 122t-122 294z" />
<glyph horiz-adv-x="0" />
<glyph unicode="&#xd;" horiz-adv-x="1044" />
<glyph unicode=" "  horiz-adv-x="532" />
<glyph unicode="&#x09;" horiz-adv-x="532" />
<glyph unicode="&#xa0;" horiz-adv-x="532" />
<glyph unicode="!" horiz-adv-x="431" d="M110 106q0 43 31 74t75 31q43 0 74 -31t31 -74q0 -44 -31 -75t-74 -31q-44 0 -75 31t-31 75zM122 395v985q0 39 27 66q28 27 67 27q38 0 66 -27q27 -27 27 -66v-985q0 -39 -27 -66q-28 -28 -66 -28q-39 0 -67 28q-27 27 -27 66z" />
<glyph unicode="&#x22;" horiz-adv-x="531" d="M50 1233v219q0 39 27 66q28 27 67 27q38 0 66 -27q27 -27 27 -66v-219q0 -39 -27 -67q-28 -27 -66 -27q-39 0 -67 27q-27 28 -27 67zM294 1233v219q0 39 28 66q27 27 66 27q38 0 66 -27q27 -27 27 -66v-219q0 -39 -27 -67q-28 -27 -66 -27q-39 0 -66 27q-28 28 -28 67z " />
<glyph unicode="#" horiz-adv-x="1180" d="M80 324q0 -38 27 -66q28 -27 67 -27h137v-137q0 -39 27 -67q28 -27 66 -27q39 0 67 27q27 28 27 67v137h185v-137q0 -39 27 -67q27 -27 66 -27t66 27q28 28 28 67v137h137q39 0 66 27q27 28 27 66q0 39 -27 67q-27 27 -66 27h-137v185h137q39 0 66 27t27 66t-27 66 q-27 28 -66 28h-137v137q0 39 -28 66q-27 27 -66 27t-66 -27t-27 -66v-137h-185v137q0 39 -27 66q-28 27 -67 27q-38 0 -66 -27q-27 -27 -27 -66v-137h-137q-39 0 -67 -28q-27 -27 -27 -66t27 -66q28 -27 67 -27h137v-185h-137q-39 0 -67 -27q-27 -28 -27 -67zM498 418v185 h185v-185h-185z" />
<glyph unicode="$" horiz-adv-x="1040" d="M94 299q33 -114 121 -194q87 -81 203 -104v-44q0 -39 27 -67q28 -27 66 -27q39 0 67 27q27 28 27 67v48q120 29 206 116q89 89 113 212q36 177 -60 326q-94 144 -259 184v409q68 -37 93 -110q21 -63 88 -63h1q48 0 77 39q28 39 13 85q-67 200 -272 251v49q0 38 -27 66 q-28 27 -67 27q-38 0 -66 -27q-27 -28 -27 -66v-47q-128 -31 -210 -136q-84 -106 -84 -241v-29q0 -135 84 -239q82 -102 210 -135v-476q-111 42 -144 157q-19 66 -90 66q-48 0 -76 -39t-14 -85zM314 1048v31q0 117 104 173v-374q-104 54 -104 170zM605 206v435 q77 -36 115 -113q39 -80 16 -170q-28 -105 -131 -152z" />
<glyph unicode="%" horiz-adv-x="1368" d="M80 1174q0 125 88 213t212 88t213 -88q88 -88 88 -213q0 -124 -88 -212q-89 -88 -213 -88t-212 88t-88 212zM164 76q-9 38 12 71l829 1286q21 33 59 41q37 8 70 -13t41 -59t-13 -70l-828 -1287q-21 -32 -59 -40q-38 -9 -71 12q-32 21 -40 59zM243 1174q0 -56 40 -97 q40 -40 97 -40t97 40q41 41 41 97q0 57 -41 98q-40 40 -97 40t-97 -40q-40 -41 -40 -98zM688 300q0 125 88 213t212 88t212 -88t88 -213q0 -124 -88 -212t-212 -88t-212 88t-88 212zM850 300q0 -57 41 -97q40 -40 97 -40t97 40t40 97t-40 98q-40 40 -97 40t-97 -40 q-41 -41 -41 -98z" />
<glyph unicode="&#x26;" horiz-adv-x="1274" d="M106 338q30 -148 150 -244q118 -94 270 -94h1q181 0 306 134l67 66l183 -168q29 -27 69 -25q39 1 66 31q26 29 25 68q-2 39 -31 65l-178 164l66 66q28 28 28 67t-28 67q-27 28 -67 28q-39 0 -67 -28l-71 -72l-248 228q113 41 182 137q72 99 72 223v28q0 160 -112 272 q-111 113 -269 113h-6q-169 0 -283 -129h-1q-1 -2 -3 -4q-2 -3 -3 -4q-17 -20 -18 -23q-88 -118 -74 -265q14 -148 124 -248l18 -16q-100 -73 -146 -187q-48 -120 -22 -250zM294 364q-23 87 14 166q36 75 111 112l341 -314l-61 -60q-70 -77 -172 -77h-4q-80 0 -144 47 q-65 49 -85 126zM321 1067q-4 82 50 141q58 66 143 66h6q80 0 136 -57q57 -57 57 -138v-31q0 -80 -58 -136q-56 -56 -137 -56l-48 -3l-86 79q-59 54 -63 135z" />
<glyph unicode="'" horiz-adv-x="287" d="M50 1233v219q0 39 27 66q28 27 67 27q38 0 66 -27q27 -27 27 -66v-219q0 -39 -27 -67q-28 -27 -66 -27q-39 0 -67 27q-27 28 -27 67z" />
<glyph unicode="(" horiz-adv-x="641" d="M110 215q0 -172 122 -294t294 -122h1q39 0 66 27q28 28 28 67q0 38 -28 66q-27 27 -66 27h-1q-95 0 -162 67t-67 162v1032q0 95 67 162t162 67h1q39 0 66 28q28 27 28 66q0 38 -28 66q-27 27 -66 27h-1q-172 0 -294 -122t-122 -294v-1032z" />
<glyph unicode=")" horiz-adv-x="641" d="M20 -107q0 -39 27 -67q28 -27 67 -27h1q172 0 294 122t122 294v1032q0 172 -122 294t-294 122h-1q-39 0 -67 -27q-27 -28 -27 -66q0 -39 27 -66q28 -28 67 -28h1q95 0 162 -67t67 -162v-1032q0 -95 -67 -162t-162 -67h-1q-39 0 -67 -27q-27 -28 -27 -66z" />
<glyph unicode="*" horiz-adv-x="893" d="M50 1152q0 -39 27 -67q28 -27 67 -27h77l-55 -55q-27 -27 -27 -66q0 -38 27 -66q28 -27 66 -27q39 0 66 27l55 55v-77q0 -39 27 -67q28 -27 66 -27q39 0 67 27q27 28 27 67v77l55 -55q27 -27 66 -27q38 0 66 27q27 28 27 66q0 39 -27 66l-55 55h77q39 0 67 27 q27 28 27 67q0 38 -27 66q-28 27 -67 27h-77l55 55q27 27 27 66t-27 66q-28 27 -66 27q-39 0 -66 -27l-55 -55v77q0 39 -27 67q-28 27 -67 27q-38 0 -66 -27q-27 -28 -27 -67v-77l-55 55q-27 27 -66 27q-38 0 -66 -27q-27 -27 -27 -66t27 -66l55 -55h-77q-39 0 -67 -27 q-27 -28 -27 -66z" />
<glyph unicode="+" horiz-adv-x="893" d="M50 726q0 -39 27 -67q28 -27 67 -27h209v-209q0 -39 27 -67q28 -27 67 -27q38 0 66 27q27 28 27 67v209h209q39 0 67 27q27 28 27 67q0 38 -27 66q-28 27 -67 27h-209v209q0 39 -27 67q-28 27 -66 27q-39 0 -67 -27q-27 -28 -27 -67v-209h-209q-39 0 -67 -27 q-27 -28 -27 -66z" />
<glyph unicode="," horiz-adv-x="404" d="M62 -172q-12 37 6 71l102 195q18 34 55 45q37 12 71 -6t46 -55t-6 -71l-102 -195q-18 -34 -55 -45q-37 -12 -72 6q-34 18 -45 55z" />
<glyph unicode="-" horiz-adv-x="893" d="M50 728q0 38 27 66q28 27 67 27h605q39 0 67 -27q27 -28 27 -66q0 -39 -27 -67q-28 -27 -67 -27h-605q-39 0 -67 27q-27 28 -27 67z" />
<glyph unicode="." horiz-adv-x="311" d="M50 106q0 43 31 74t75 31q43 0 74 -31t31 -74q0 -44 -31 -75t-74 -31q-44 0 -75 31t-31 75z" />
<glyph unicode="/" horiz-adv-x="745" d="M34 127l502 1307q14 36 50 52q35 16 71 2t52 -49q16 -36 2 -72l-503 -1307q-14 -36 -49 -52q-36 -15 -72 -1q-36 13 -52 49q-15 35 -1 71z" />
<glyph unicode="0" horiz-adv-x="963" d="M100 386q0 -160 111 -273t268 -113h6q156 0 267 113t111 273v699q0 160 -111 273t-267 113h-6q-157 0 -268 -113t-111 -273v-699zM287 386v699q0 82 56 141q56 58 136 58h6q79 0 135 -58q56 -59 56 -141v-699q0 -83 -56 -141t-135 -58h-6q-80 0 -136 58t-56 141z" />
<glyph unicode="1" horiz-adv-x="677" d="M80 1082q0 -38 27 -66q28 -27 67 -27q38 0 66 27l140 140v-1062q0 -39 27 -67q27 -27 66 -27t66 27q28 28 28 67v1288q0 39 -28 66q-27 27 -66 27t-66 -27l-300 -300q-27 -27 -27 -66z" />
<glyph unicode="2" horiz-adv-x="927" d="M93 73q9 -38 41 -59q22 -13 48 -14h563q39 0 66 27q27 28 27 67q0 38 -27 66q-27 27 -66 27h-389l411 662q80 111 70 250t-109 238l-5 5q-111 111 -269 110h-20q-8 -1 -6 -1q-115 -8 -207 -79q-89 -70 -126 -177q-15 -44 14 -83q28 -38 76 -38q67 0 87 61q25 73 93 108 q54 22 92 22q78 0 134 -56l5 -4q48 -48 54 -116q7 -66 -29 -122q-2 -3 -516 -824q-21 -33 -12 -70z" />
<glyph unicode="3" horiz-adv-x="987" d="M94 299q48 -158 187 -241q145 -87 312 -43q134 35 220 152q84 117 84 263v4q0 204 -155 333q131 120 131 300v6q0 163 -110 280t-267 121h-10q-124 -3 -223 -81q-97 -75 -135 -194q-14 -46 14 -86q29 -40 76 -40q68 0 88 64q19 62 70 102t115 41q81 -2 138 -62t57 -145 v-6q0 -65 -35 -118q-35 -51 -91 -75q-74 -30 -74 -109v-2q0 -81 78 -112q65 -25 105 -84q41 -60 41 -133v-4q0 -81 -47 -146q-48 -65 -123 -83q-91 -22 -168 26q-75 47 -100 133q-20 67 -89 67q-48 0 -76 -40q-27 -40 -13 -88z" />
<glyph unicode="4" horiz-adv-x="973" d="M59 583q9 -38 42 -58q20 -12 45 -13q1 0 2 -1h2h381v-417q0 -39 28 -67q27 -27 66 -27t66 27q27 28 27 67v417h81q39 0 66 28q28 27 28 66t-28 66q-27 27 -66 27h-81v687q0 39 -27 66t-66 27q-45 0 -74 -36l-2 -2q-2 -3 -3 -4v-1l-1 -1l-475 -780q-20 -33 -11 -71z M316 698l215 353v-353h-215z" />
<glyph unicode="5" horiz-adv-x="1004" d="M93 301q38 -132 143 -216q108 -85 242 -85h4q138 0 247 86q111 88 144 226q51 206 -72 371q-120 162 -314 163h-172v423h425q37 0 64 25q28 26 30 63q2 41 -24 70q-27 29 -65 29h-519q-37 0 -63 -27q-26 -28 -26 -67v-609q0 -39 26 -67q26 -27 63 -27h251q86 0 152 -58 q67 -59 78 -147q13 -107 -55 -187q-66 -80 -167 -80h-7q-76 0 -136 48q-59 48 -79 123q-18 64 -85 64q-45 0 -71 -38q-27 -38 -14 -83z" />
<glyph unicode="6" horiz-adv-x="943" d="M100 379q0 -157 111 -268t268 -111h6q156 0 267 111t111 268v133q0 9 -1 17q-8 150 -117 253q-110 104 -260 104h-6q-103 0 -192 -52v261q0 79 56 135t136 56h6q62 0 112 -36t69 -94q21 -61 88 -61q47 0 76 38q28 39 13 83q-38 114 -136 185q-99 72 -222 72h-6 q-157 0 -268 -111t-111 -267v-716zM287 379v129q0 79 56 135t136 56h6q79 0 135 -56t56 -135v-129q0 -80 -56 -136t-135 -56h-6q-80 0 -136 56t-56 136z" />
<glyph unicode="7" horiz-adv-x="867" d="M80 1363q0 -38 27 -66q28 -27 67 -27h409l-476 -1140q-15 -36 -1 -72q15 -36 51 -50q36 -15 71 -1q36 15 51 51l530 1269h1q3 9 5 19q2 9 2 17q0 39 -28 66q-27 28 -66 28h-549q-39 0 -67 -28q-27 -27 -27 -66z" />
<glyph unicode="8" horiz-adv-x="1001" d="M80 437q0 -181 122 -309q123 -128 295 -128h7q172 0 295 128q122 128 122 309q0 215 -164 346q125 119 125 294q0 164 -111 280t-267 116h-7q-156 0 -267 -116t-111 -280q0 -175 126 -294q-165 -131 -165 -346zM267 437q0 101 68 172q67 72 162 72h7q95 0 162 -72 q68 -71 68 -172t-68 -173q-67 -72 -162 -72h-7q-95 0 -162 72q-68 72 -68 173zM306 1077q0 85 56 144q56 60 135 60h7q79 0 135 -60q56 -59 56 -144q0 -84 -56 -144t-135 -60h-7q-79 0 -135 60t-56 144z" />
<glyph unicode="9" horiz-adv-x="943" d="M80 949q0 -9 1 -18q9 -149 118 -253t260 -104h6q102 0 191 53v-248q0 -80 -56 -136t-135 -56h-6q-63 0 -113 37q-49 36 -69 93q-21 62 -88 62q-47 0 -76 -39q-28 -38 -13 -83q39 -113 136 -184q99 -73 223 -73h6q156 0 267 111t111 268v716q0 156 -111 267t-267 111h-6 q-157 0 -268 -111t-111 -267v-146zM267 953v142q0 79 56 135t136 56h6q79 0 135 -56t56 -135v-142q0 -79 -56 -135t-135 -56h-6q-80 0 -136 56t-56 135z" />
<glyph unicode=":" horiz-adv-x="311" d="M50 419q0 43 31 74t75 31q43 0 74 -31t31 -74q0 -44 -31 -75t-74 -31q-44 0 -75 31t-31 75zM50 1000q0 44 31 75t75 31q43 0 74 -31t31 -75q0 -43 -31 -74t-74 -31q-44 0 -75 31t-31 74z" />
<glyph unicode=";" horiz-adv-x="384" d="M52 249q-12 37 6 71l102 195q18 34 55 45q37 12 71 -6t46 -55t-6 -71l-102 -195q-18 -34 -55 -45q-37 -12 -72 6q-34 18 -45 55zM90 1000q0 44 31 75t75 31q43 0 74 -31t31 -75q0 -43 -31 -74t-74 -31q-44 0 -75 31t-31 74z" />
<glyph unicode="&#x3c;" horiz-adv-x="779" d="M55 636q8 -33 34 -53l486 -362q31 -23 69 -18q39 6 62 37t17 69q-5 38 -36 62l-386 288l386 288q31 23 36 62q6 38 -17 69t-62 37q-38 5 -69 -18l-486 -362q-26 -20 -34 -53q-5 -22 0 -46z" />
<glyph unicode="=" horiz-adv-x="893" d="M50 536q0 38 27 66q28 27 67 27h605q39 0 67 -27q27 -28 27 -66q0 -39 -27 -67q-28 -27 -67 -27h-605q-39 0 -67 27q-27 28 -27 67zM50 910q0 38 27 66q28 27 67 27h605q39 0 67 -27q27 -28 27 -66q0 -39 -27 -66q-28 -28 -67 -28h-605q-39 0 -67 28q-27 27 -27 66z" />
<glyph unicode="&#x3e;" horiz-adv-x="779" d="M55 309q-5 -38 18 -69t61 -37q39 -5 70 18l485 362q27 20 35 53q5 24 0 46q-8 33 -35 53l-485 362q-31 23 -70 18q-38 -6 -61 -37t-18 -69q6 -39 37 -62l386 -288l-386 -288q-31 -24 -37 -62z" />
<glyph unicode="?" horiz-adv-x="868" d="M65 1210q-15 -46 14 -85t77 -39q68 0 89 63q20 59 69 95q51 38 115 38h6q80 0 137 -57q57 -58 57 -139v-31q0 -104 -87 -161q-96 -56 -154 -152q-61 -100 -61 -212v-145q0 -39 27 -67q28 -27 67 -27q38 0 66 27q27 28 27 67v145q0 129 110 196q194 112 194 332v28 q0 160 -112 274t-271 114h-6q-125 0 -226 -75q-99 -72 -138 -189zM317 106q0 43 31 74t75 31q43 0 74 -31t31 -74q0 -44 -31 -75t-74 -31q-44 0 -75 31t-31 75z" />
<glyph unicode="@" horiz-adv-x="1836" d="M95 784q-15 -328 197 -577q210 -247 530 -287q41 -5 72 23q31 29 31 71q0 36 -24 63q-24 26 -61 31q-237 31 -396 212q-161 182 -161 425q0 275 200 465q201 191 477 176q263 -14 443 -216q179 -202 163 -465q-8 -135 -55 -229h-166v630q0 39 -28 67q-27 27 -66 27 q-73 0 -90 -71q-105 71 -232 71h-7q-172 0 -294 -122t-122 -294v-79q0 -172 122 -294t294 -122h7q127 0 232 71q1 -3 2 -5q20 -62 85 -66h3h317q41 0 69 30q-2 -2 4 5q5 7 6 8l1 2l2 2q106 176 106 409q0 354 -256 600q-258 246 -614 230q-318 -15 -547 -244 q-229 -230 -244 -547zM693 705v79q0 95 67 162t162 67h7q94 0 161 -67q68 -67 68 -162v-79q0 -95 -68 -162q-67 -67 -161 -67h-7q-95 0 -162 67t-67 162z" />
<glyph unicode="A" horiz-adv-x="983" d="M110 94q0 -39 27 -67q28 -27 67 -27q38 0 66 27q27 28 27 67v600h389v-600q0 -39 27 -67q27 -27 66 -27t66 27q28 28 28 67v1001q0 59 -19 116v2q0 2 -1 3q-62 183 -246 240q-1 0 -2 1q-15 4 -31 8h-4q-2 1 -3 1q-14 3 -29 5l-8 1q-19 1 -35 1h-7q-16 0 -36 -1l-7 -1 q-15 -2 -29 -5q-1 0 -4 -1h-3q-16 -4 -31 -8q-2 -1 -3 -1q-184 -57 -246 -240q2 5 -1 -5q-18 -57 -18 -116v-1001zM297 881v214q0 38 15 73q1 3 1 2q10 25 27 46q1 0 2 1q0 1 1 2q9 10 20 20q5 5 6 5q6 5 12 9q5 4 13 8q5 3 14 7q6 3 13 6l10 3q11 4 23 6q2 0 8 1q14 2 25 2 h9q11 0 25 -2q6 -1 8 -1q12 -2 23 -6q1 0 9 -3l14 -6l14 -7q7 -4 13 -8t12 -9q2 -2 6 -5q11 -10 20 -20q3 -4 2 -3q17 -21 28 -46l1 -2q15 -35 15 -73v-214h-389z" />
<glyph unicode="B" horiz-adv-x="1005" d="M110 96q0 -40 27 -68q28 -28 67 -28h307q172 1 293 127q121 125 121 301v8q0 208 -161 337q125 116 125 288v6q0 162 -111 276t-268 114h-306q-39 0 -67 -28q-27 -28 -27 -68v-1265zM297 193v478h212q94 0 162 -69q67 -69 67 -166v-8q0 -97 -67 -166q-68 -69 -162 -69 h-212zM297 864v401h213q79 0 135 -58q57 -58 57 -140v-6q0 -81 -56 -139q-57 -58 -136 -58h-213z" />
<glyph unicode="C" horiz-adv-x="888" d="M80 379q0 -157 111 -268t268 -111h6q123 0 222 73q98 71 136 184q5 16 5 31q0 28 -18 52q-29 39 -76 39q-67 0 -88 -62q-19 -57 -69 -93q-50 -37 -112 -37h-6q-80 0 -136 56t-56 136v716q0 79 56 135t136 56h6q62 0 112 -36t69 -94q21 -61 88 -61q47 0 76 38q18 25 18 53 q0 15 -5 30q-38 114 -136 185q-99 72 -222 72h-6q-157 0 -268 -111t-111 -267v-716z" />
<glyph unicode="D" horiz-adv-x="969" d="M110 94q0 -39 27 -67q28 -27 67 -27h306q157 0 268 111t111 268v681q0 156 -111 267t-268 111h-306q-39 0 -67 -27q-27 -28 -27 -66v-1251zM297 187v1064h213q79 0 135 -56q57 -56 57 -135v-681q0 -80 -57 -136q-56 -56 -135 -56h-213z" />
<glyph unicode="E" horiz-adv-x="871" d="M110 94q0 -39 27 -67q28 -27 67 -27h493q39 0 66 27q28 28 28 67q0 38 -28 66q-27 27 -66 27h-400v489h340q39 0 67 28q27 27 27 66t-27 66q-28 27 -67 27h-340v388h400q39 0 66 28q28 27 28 66q0 38 -28 66q-27 27 -66 27h-493q-39 0 -67 -27q-27 -28 -27 -66v-1251z " />
<glyph unicode="F" horiz-adv-x="841" d="M110 94q0 -39 27 -67q28 -27 67 -27q38 0 66 27q27 28 27 67v582h340q39 0 67 28q27 27 27 66t-27 66q-28 27 -67 27h-340v388h400q39 0 66 28q28 27 28 66q0 38 -28 66q-27 27 -66 27h-493q-39 0 -67 -27q-27 -28 -27 -66v-1251z" />
<glyph unicode="G" horiz-adv-x="923" d="M80 379q0 -157 111 -268t268 -111h6q156 0 267 111t111 268v126q0 156 -110 266q-110 111 -266 112h-2q-38 -1 -65 -28q-26 -27 -26 -65t26 -65q27 -28 65 -29q79 0 135 -56t56 -135v-126q0 -80 -56 -136t-135 -56h-6q-80 0 -136 56t-56 136v716q0 79 56 135t136 56h6 q62 0 112 -36t69 -94q21 -61 88 -61q47 0 76 38q18 25 18 53q0 15 -5 30q-38 114 -136 185q-99 72 -222 72h-6q-157 0 -268 -111t-111 -267v-716z" />
<glyph unicode="H" horiz-adv-x="973" d="M110 94q0 -39 27 -67q28 -27 67 -27q38 0 66 27q27 28 27 67v600h379v-600q0 -39 28 -67q27 -27 66 -27t66 27q27 28 27 67v1286q0 39 -27 66t-66 27t-66 -27q-28 -27 -28 -66v-499h-379v499q0 39 -27 66q-28 27 -66 27q-39 0 -67 -27q-27 -27 -27 -66v-1286z" />
<glyph unicode="I" horiz-adv-x="407" d="M110 94v1286q0 39 27 66q28 27 67 27q38 0 66 -27q27 -27 27 -66v-1286q0 -39 -27 -67q-28 -27 -66 -27q-39 0 -67 27q-27 28 -27 67z" />
<glyph unicode="J" horiz-adv-x="848" d="M25 257q39 -113 136 -184q100 -73 223 -73h6q156 0 267 111t111 268v1001q0 39 -27 66t-66 27t-66 -27q-28 -27 -28 -66v-1001q0 -80 -56 -136t-135 -56h-6q-62 0 -113 37q-49 36 -69 93q-20 62 -87 62q-48 0 -76 -39q-19 -25 -19 -53q0 -15 5 -30z" />
<glyph unicode="K" horiz-adv-x="982" d="M110 94q0 -39 27 -66q28 -28 67 -28q38 0 66 28q27 27 27 66v531l433 -587q23 -31 61 -37q8 -1 15 -1q29 0 54 18q30 23 36 61q1 8 1 15q0 29 -18 54l-462 627l458 546q22 26 22 59v8q-3 38 -32 63q-26 22 -60 22h-8q-38 -3 -63 -32l-437 -522v461q0 39 -27 66 q-28 27 -66 27q-39 0 -67 -27q-27 -27 -27 -66v-1286z" />
<glyph unicode="L" horiz-adv-x="888" d="M110 94q0 -39 27 -67q28 -27 67 -27h540q39 0 66 27q28 28 28 67q0 38 -28 66q-27 27 -66 27h-447v1175q0 39 -27 66q-28 28 -66 28q-39 0 -67 -28q-27 -27 -27 -66v-1268z" />
<glyph unicode="M" horiz-adv-x="1306" d="M110 94q0 -39 27 -67q28 -27 67 -27q38 0 66 27q27 28 27 67v892l272 -533q18 -35 54 -46q15 -5 30 -5q21 0 42 10q17 9 29 26q6 6 11 15l274 535v-894q0 -39 27 -67q28 -27 66 -27q39 0 67 27q27 28 27 67v1281q0 39 -27 66q-28 28 -67 28q-42 0 -70 -33q-3 -3 -7 -8 q1 1 -2 -3q-4 -8 -4 -7l-367 -716l-365 716l-1 1t-1 2q-27 48 -81 48q-39 0 -67 -28q-27 -27 -27 -66v-1281z" />
<glyph unicode="N" horiz-adv-x="1049" d="M110 94q0 -39 27 -66q28 -28 67 -28q38 0 66 28q27 27 27 66v889l465 -932q18 -34 55 -46q14 -5 29 -5q21 0 42 11q40 20 49 65v2q1 5 1 11q1 8 1 5v1286q0 39 -28 66q-27 28 -66 28t-66 -28q-27 -27 -27 -66v-889l-465 932q-1 0 -1 2q-1 1 -2 1q-3 7 -7 11v1 q-29 36 -73 36q-39 0 -67 -28q-27 -27 -27 -66v-1286z" />
<glyph unicode="O" horiz-adv-x="1010" d="M80 425v624q0 175 125 300q124 124 300 124t300 -124q125 -125 125 -300v-624q0 -176 -125 -300q-124 -125 -300 -125t-300 125q-125 124 -125 300zM267 425q0 -98 70 -168q69 -70 168 -70q98 0 168 70t70 168v624q0 98 -70 168q-70 69 -168 69q-99 0 -168 -69 q-70 -70 -70 -168v-624z" />
<glyph unicode="P" horiz-adv-x="969" d="M110 94q0 -39 27 -67q28 -27 67 -27q38 0 66 27q27 28 27 67v600h213q157 0 268 111t111 268v6q0 156 -111 267t-268 111h-306q-39 0 -67 -27q-27 -27 -27 -66v-1270zM297 881v389h213q79 0 135 -56q57 -56 57 -135v-6q0 -80 -57 -136q-56 -56 -135 -56h-213z" />
<glyph unicode="Q" horiz-adv-x="1026" d="M80 423q0 -176 125 -300q124 -125 300 -125q94 0 181 41l100 -101q28 -27 66 -27q39 0 67 27q27 28 27 67q0 38 -27 66l-85 84q96 117 96 268v624q0 176 -125 300q-124 125 -300 125t-300 -125q-125 -124 -125 -300v-624zM267 423v624q0 98 70 168q69 70 168 70 q98 0 168 -70t70 -168v-624q0 -99 -70 -168q-70 -70 -168 -70q-99 0 -168 70q-70 69 -70 168z" />
<glyph unicode="R" horiz-adv-x="969" d="M110 94q0 -39 27 -67q28 -27 67 -27q38 0 66 27q27 28 27 67v600h213q79 0 135 -56q57 -56 57 -135v-409q0 -39 27 -67q27 -27 66 -27t66 27q28 28 28 67v409q0 171 -131 285q131 113 131 285v6q0 156 -111 267t-268 111h-306q-39 0 -67 -27q-27 -27 -27 -66v-1270z M297 881v389h213q79 0 135 -56q57 -56 57 -135v-6q0 -80 -57 -136q-56 -56 -135 -56h-213z" />
<glyph unicode="S" horiz-adv-x="966" d="M54 306q40 -134 151 -219q114 -87 256 -87h1q153 0 272 95q120 96 150 245q10 50 10 98q0 146 -97 266q-127 157 -327 158q-81 0 -138 56q-58 56 -58 137v31q0 82 57 139q56 58 137 58h6q63 0 114 -38q50 -37 70 -96q21 -63 88 -63h1q48 0 76 39q19 26 19 55q0 15 -5 31 q-39 116 -138 189q-100 74 -225 74h-6q-159 0 -271 -113q-113 -114 -113 -275v-28q0 -161 114 -273q113 -112 275 -115q113 -3 182 -94q50 -65 50 -143q0 -33 -9 -67q-21 -77 -86 -126q-64 -48 -145 -48h-4q-80 0 -143 49q-62 48 -84 123q-19 67 -90 67q-48 0 -76 -39 q-19 -26 -19 -56q0 -14 5 -30z" />
<glyph unicode="T" horiz-adv-x="953" d="M40 1367q0 -39 27 -66q28 -28 67 -28h249v-1179q0 -39 28 -67q27 -27 66 -27q38 0 66 27q27 28 27 67v1179h250q39 0 66 28q27 27 27 66q0 38 -27 66q-27 27 -66 27h-686q-39 0 -67 -27q-27 -28 -27 -66zM40 1367q0 -39 27 -66q28 -28 67 -28h249v-1179q0 -39 28 -67 q27 -27 66 -27q38 0 66 27q27 28 27 67v1179h250q39 0 66 28q27 27 27 66q0 38 -27 66q-27 27 -66 27h-686q-39 0 -67 -27q-27 -28 -27 -66z" />
<glyph unicode="U" horiz-adv-x="1010" d="M80 438v942q0 39 27 67q28 27 67 27q38 0 66 -27q27 -28 27 -67v-946q0 -92 59 -162q59 -72 149 -83q17 -2 32 -2q87 0 156 60q80 71 80 178v955q0 39 27 67q27 27 66 27t66 -27q28 -28 28 -67v-955q0 -181 -132 -307q-122 -118 -289 -118q-12 0 -24 1q-171 8 -289 137 q-116 127 -116 300z" />
<glyph unicode="V" horiz-adv-x="1030" d="M41 1351l381 -1281q11 -39 47 -58q22 -12 46 -12q14 0 28 4q55 17 67 73l378 1273q5 15 5 30q0 23 -12 45q-20 35 -58 47q-14 4 -28 4q-24 0 -47 -12q-35 -19 -47 -58l-286 -964l-287 965q-11 38 -47 58q-21 12 -44 12q-14 0 -30 -5q-39 -11 -58 -47q-12 -22 -12 -46 q0 -14 4 -28z" />
<glyph unicode="W" horiz-adv-x="1382" d="M56 1366l214 -1288q7 -38 38 -61q24 -17 52 -17q9 0 18 2q42 7 65 45q2 3 248 483l244 -479q18 -34 55 -46q15 -5 29 -5q21 0 42 11q38 19 49 58q1 3 216 1297q1 8 1 16q0 29 -17 54q-23 31 -61 38q-8 1 -16 1q-29 0 -54 -17q-31 -22 -38 -61l-166 -1011l-201 393 q-26 51 -83 51t-83 -51l-200 -393l-167 1011q-7 39 -38 61q-25 17 -54 17q-8 0 -16 -1q-38 -7 -61 -38q-17 -25 -17 -54q0 -8 1 -16z" />
<glyph unicode="X" horiz-adv-x="1027" d="M92 67q11 -38 46 -56q20 -11 42 -11q14 0 29 5q37 11 55 46l249 484l250 -484q18 -35 55 -46q15 -5 29 -5q21 0 42 11q35 18 46 56q5 15 5 29q0 22 -11 43l-310 601l310 601q11 21 11 43q0 14 -5 29q-11 37 -46 56q-20 11 -42 11q-14 0 -29 -5q-37 -12 -55 -47l-250 -484 l-249 484q-18 35 -55 47q-15 5 -29 5q-21 0 -42 -11q-35 -19 -46 -56q-5 -15 -5 -29q0 -22 11 -43l310 -601l-310 -601q-11 -21 -11 -43q0 -14 5 -29z" />
<glyph unicode="Y" horiz-adv-x="967" d="M62 1408q-5 -15 -5 -29q0 -22 11 -42l322 -617v-626q0 -39 27 -67q28 -27 66 -27q39 0 67 27q27 28 27 67v626l322 617q11 20 11 42q0 14 -5 29q-11 37 -46 55q-20 11 -42 11q-14 0 -29 -5q-37 -12 -55 -46l-250 -478l-249 478q-18 34 -55 46q-15 5 -29 5q-22 0 -42 -11 q-35 -18 -46 -55z" />
<glyph unicode="Z" horiz-adv-x="968" d="M92 64q13 -37 47 -54q19 -10 42 -10h613q39 0 66 27q28 28 28 67q0 38 -28 67q-26 28 -66 36h-459l541 1106l3 7q2 4 3 6.5t2 6.5q3 13 3 28q0 39 -24 66q-25 27 -63 27h-613q-39 0 -66 -27q-28 -28 -28 -66q0 -39 28 -67q27 -27 66 -27h458l-548 -1122q-10 -21 -10 -41 q0 -15 5 -30z" />
<glyph unicode="[" horiz-adv-x="641" d="M110 -103q0 -39 27 -67q28 -27 67 -27h323q39 0 66 27q28 28 28 67q0 38 -28 66q-27 27 -66 27h-230v1490h230q39 0 66 28q28 27 28 66q0 38 -28 66q-27 27 -66 27h-323q-39 0 -67 -27q-27 -28 -27 -66v-1677z" />
<glyph unicode="\" horiz-adv-x="745" d="M34 1367q-14 36 1 72q16 35 52 49t72 -2q35 -16 49 -52l503 -1307q14 -36 -2 -71q-16 -36 -52 -49q-36 -14 -71 1q-36 16 -50 52z" />
<glyph unicode="]" horiz-adv-x="641" d="M20 -103q0 -39 27 -67q28 -27 67 -27h323q39 0 66 27q28 28 28 67v1677q0 38 -28 66q-27 27 -66 27h-323q-39 0 -67 -27q-27 -28 -27 -66q0 -39 27 -66q28 -28 67 -28h230v-1490h-230q-39 0 -67 -27q-27 -28 -27 -66z" />
<glyph unicode="^" horiz-adv-x="1023" d="M56 946q5 -38 36 -62q31 -23 70 -17q38 5 61 36l288 387l289 -387q23 -31 61 -36q38 -6 69 17q32 24 37 62q6 38 -18 69l-362 486q-20 26 -52 34q-23 6 -46 0q-34 -8 -53 -34l-363 -486q-23 -31 -17 -69z" />
<glyph unicode="_" horiz-adv-x="893" d="M50 -128q0 38 27 66q28 27 67 27h605q39 0 67 -27q27 -28 27 -66q0 -39 -27 -67q-28 -27 -67 -27h-605q-39 0 -67 27q-27 28 -27 67z" />
<glyph unicode="`" horiz-adv-x="404" d="M62 1460q11 37 45 55q35 18 72 6q37 -11 55 -45l102 -195q18 -34 6 -71t-46 -55t-71 -6q-37 11 -55 45l-102 195q-18 34 -6 71z" />
<glyph unicode="a" d="M50 416q0 -172 122 -294t294 -122h7q127 0 232 71q17 -71 90 -71q39 0 66 27q28 28 28 67v836q0 38 -28 66q-27 27 -66 27q-73 0 -90 -71q-106 71 -232 71h-7q-172 0 -294 -122t-122 -294v-191zM237 416v191q0 95 67 162t162 67h7q94 0 161 -67q68 -67 68 -162v-191 q0 -95 -68 -162q-67 -67 -161 -67h-7q-95 0 -162 67t-67 162z" />
<glyph unicode="b" horiz-adv-x="999" d="M90 94q0 -39 27 -67q28 -27 67 -27q72 0 90 71q105 -71 232 -71h7q172 0 294 122t122 294v191q0 172 -122 294t-294 122h-7q-125 0 -229 -69v367q0 38 -27 66q-28 27 -66 27q-39 0 -67 -27q-27 -28 -27 -66v-1227zM277 416v191q0 95 67 162t162 67h7q94 0 161 -67 q68 -67 68 -162v-191q0 -95 -68 -162q-67 -67 -161 -67h-7q-95 0 -162 67t-67 162z" />
<glyph unicode="c" horiz-adv-x="898" d="M70 379q0 -157 111 -268t268 -111h6q123 0 222 73q98 71 136 184q5 16 5 31q0 28 -18 52q-29 39 -76 39q-67 0 -88 -62q-19 -57 -69 -93q-50 -37 -112 -37h-6q-80 0 -136 56t-56 136v263q0 79 56 135t136 56h6q62 0 112 -36t69 -94q21 -61 88 -61q47 0 76 38q18 25 18 53 q0 15 -5 30q-38 114 -136 185q-99 72 -222 72h-6q-157 0 -268 -111t-111 -267v-263z" />
<glyph unicode="d" horiz-adv-x="999" d="M70 416q0 -172 122 -294t294 -122h7q127 0 232 71q17 -71 90 -71q39 0 66 27q28 28 28 67v1227q0 38 -28 66q-27 27 -66 27t-66 -27q-27 -28 -27 -66v-367q-105 69 -229 69h-7q-172 0 -294 -122t-122 -294v-191zM257 416v191q0 95 67 162t162 67h7q94 0 161 -67 q68 -67 68 -162v-191q0 -95 -68 -162q-67 -67 -161 -67h-7q-95 0 -162 67t-67 162z" />
<glyph unicode="e" d="M70 412q2 -171 123 -291q122 -121 293 -121h7q210 0 335 170q19 25 19 54q0 14 -5 30q-14 45 -59 60q-19 7 -36 7q-41 0 -69 -39q-69 -95 -185 -95h-7q-95 0 -162 67t-67 162l465 1q107 0 161 93q26 43 26 94q0 36 -7 71q-7 44 -24 85q-31 76 -89 135q-122 124 -296 124 h-7q-172 0 -294 -122q-122 -121 -122 -293v-192zM257 603v1q0 94 67 161t162 67h7q93 0 161 -67q66 -68 67 -162h-464z" />
<glyph unicode="f" horiz-adv-x="601" d="M90 94q0 -39 27 -67q28 -27 67 -27q38 0 66 27q27 28 27 67v726h151q39 0 66 28q27 27 27 66t-27 66q-27 28 -66 28h-150q5 90 71 152q66 63 157 63h1q39 0 66 27q28 28 28 67q0 38 -28 66q-27 27 -66 27h-1q-172 0 -294 -122t-122 -294v-900z" />
<glyph unicode="g" d="M70 406q0 -172 122 -294t294 -122h7q124 0 228 69v-60h1q0 -95 -68 -162q-67 -67 -161 -67h-7q-95 0 -162 68q-28 29 -62 29q-23 0 -48 -14q-41 -22 -48 -69q-1 -8 -1 -15q0 -37 28 -65q121 -121 293 -121h7q172 0 294 122t122 294h-1l1 85v836q0 39 -28 66 q-27 28 -66 28q-73 0 -90 -71q-106 71 -232 71h-7q-172 0 -294 -122t-122 -294v-192zM257 406v192q0 94 67 161t162 67h7q94 0 161 -67q68 -67 68 -161v-192q0 -94 -68 -162q-67 -67 -161 -67h-7q-95 0 -162 67q-67 68 -67 162z" />
<glyph unicode="h" horiz-adv-x="999" d="M90 99q0 -39 25 -68q26 -29 64 -31h5q37 0 64 26q29 27 29 68v513q0 95 67 162t162 67h7q95 0 162 -67t67 -162v-513q0 -39 27 -67q27 -27 66 -27t66 27q28 28 28 67v513q0 173 -122 294q-122 122 -294 122h-7q-125 0 -229 -69v363q0 34 -21 61q-21 28 -54 34 q-10 2 -20 2q-32 0 -58 -22q-34 -28 -34 -71v-1222z" />
<glyph unicode="i" horiz-adv-x="391" d="M90 1216q0 44 31 75t75 31q43 0 74 -31t31 -75q0 -43 -31 -74t-74 -31q-44 0 -75 31t-31 74zM102 94v833q0 39 27 66q28 27 67 27q38 0 66 -27q27 -27 27 -66v-833q0 -39 -27 -67q-28 -27 -66 -27q-39 0 -67 27q-27 28 -27 67z" />
<glyph unicode="j" horiz-adv-x="483" d="M-130 -304q0 -39 27 -67q28 -27 67 -27h1q172 0 294 122t122 294v910q0 39 -28 66q-27 27 -66 27t-66 -27t-27 -66v-910q0 -95 -67 -162t-162 -67h-1q-39 0 -67 -27q-27 -28 -27 -66zM182 1215q0 43 31 74t74 31q44 0 75 -31t31 -74q0 -44 -31 -75t-75 -31q-43 0 -74 31 t-31 75z" />
<glyph unicode="k" horiz-adv-x="798" d="M90 94q0 -39 27 -67q28 -27 67 -27q38 0 66 27q27 28 27 67v313l281 -370q23 -31 61 -36q7 -1 13 -1q30 0 55 19q31 23 36 61q1 7 1 13q0 30 -19 55l-315 416l287 288q27 27 27 65t-27 65t-65 27q-39 0 -66 -27l-269 -269v607q0 39 -27 66q-28 28 -66 28q-39 0 -67 -28 q-27 -27 -27 -66v-1226z" />
<glyph unicode="l" horiz-adv-x="581" d="M70 416v901q0 38 27 66q28 27 67 27q38 0 66 -27q27 -28 27 -66v-901q0 -95 67 -162t162 -67h1q39 0 66 -27q28 -28 28 -66q0 -39 -28 -67q-27 -27 -66 -27h-1q-172 0 -294 122t-122 294z" />
<glyph unicode="m" horiz-adv-x="1651" d="M90 99q0 -39 25 -68q26 -29 64 -31h5q37 0 64 26q29 27 29 68v513q0 95 67 162t162 67h7q95 0 162 -67t67 -162v-513q0 -39 27 -67q27 -27 66 -27t66 27q28 28 28 67v511v2q0 95 67 162t162 67h7q95 0 162 -67t67 -162v-513q0 -39 27 -66q27 -28 66 -28t66 28 q28 27 28 66v513q0 172 -122 294t-294 122h-7q-190 0 -315 -145l-2 -2q0 -1 -1 -1q0 -1 -1 -2q-2 -1 -2 -2l-1 -1h-1q-125 153 -322 153h-7q-125 0 -229 -69l-6 -4q-19 50 -69 60q-10 2 -19 2q-32 0 -59 -22q-34 -28 -34 -72v-819z" />
<glyph unicode="n" horiz-adv-x="999" d="M90 94q0 -39 27 -67q28 -27 67 -27q38 0 66 27q27 28 27 67v513q0 95 67 162t162 67h7q94 0 161 -67q68 -67 68 -162v-513q0 -39 27 -67q27 -27 66 -27t66 27q28 28 28 67v513q0 172 -122 294t-294 122h-7q-127 0 -232 -71q-18 71 -90 71q-39 0 -67 -27q-27 -28 -27 -66 v-836z" />
<glyph unicode="o" d="M70 416q0 -172 122 -294t294 -122h7q172 0 294 122t122 294v191q0 172 -122 294t-294 122h-7q-172 0 -294 -122t-122 -294v-191zM257 416v191q0 95 67 162t162 67h7q94 0 161 -67q68 -67 68 -162v-191q0 -95 -68 -162q-67 -67 -161 -67h-7q-95 0 -162 67t-67 162z" />
<glyph unicode="p" horiz-adv-x="999" d="M90 -299q0 -39 27 -67q28 -27 67 -27q38 0 66 27q27 28 27 67v366q104 -69 229 -69h7q172 0 294 122t122 294v191q0 172 -122 294t-294 122h-7q-127 0 -232 -71q-18 71 -90 71q-39 0 -67 -27q-27 -28 -27 -66v-1227zM277 414v191q0 95 67 162t162 67h7q94 0 161 -67 q68 -67 68 -162v-191q0 -95 -68 -162q-67 -67 -161 -67h-7q-95 0 -162 67t-67 162z" />
<glyph unicode="q" horiz-adv-x="999" d="M70 404q0 -172 122 -294t294 -122h7q124 0 229 69v-366q0 -39 27 -67q27 -27 66 -27t66 27q28 28 28 67v1227q0 38 -28 66q-27 27 -66 27q-73 0 -90 -71q-105 71 -232 71h-7q-172 0 -294 -122t-122 -294v-191zM257 404v191q0 95 67 162t162 67h7q94 0 161 -67 q68 -67 68 -162v-191q0 -95 -68 -162q-67 -67 -161 -67h-7q-95 0 -162 67t-67 162z" />
<glyph unicode="r" horiz-adv-x="651" d="M90 94q0 -39 27 -67q28 -27 67 -27q38 0 66 27q27 28 27 67v510q0 94 67 161q67 68 162 68h1q39 0 66 27q28 27 28 66t-28 66q-27 28 -66 28h-1q-127 0 -231 -71q-8 32 -33 52q-25 21 -58 21q-39 0 -67 -28q-27 -27 -27 -66v-834z" />
<glyph unicode="s" horiz-adv-x="834" d="M77 185q42 -83 127 -134q87 -51 192 -51h2q121 0 218 66q98 67 126 172q12 44 12 85q0 105 -77 193q-106 120 -276 120q-53 0 -87 38q-27 28 -26 63q0 11 2 23q8 36 41 59q32 22 73 22h2q65 0 98 -51t92 -51t89 46q15 23 15 47q0 23 -14 46q-92 150 -280 150h-3 q-108 0 -195 -57q-87 -59 -115 -151q-13 -44 -13 -85q0 -92 66 -171q94 -112 249 -115q57 -1 99 -32q44 -33 51 -82q1 -9 1 -18q0 -48 -36 -86q-44 -44 -109 -44h-5q-91 0 -130 74q-31 57 -96 57q-56 0 -87 -43q-17 -24 -17 -50q0 -20 11 -40z" />
<glyph unicode="t" horiz-adv-x="631" d="M70 416q0 -172 122 -294t294 -122h1q39 0 66 27q28 28 28 67q0 38 -28 66q-27 27 -66 27h-1q-95 0 -162 67t-67 162v404h151q39 0 66 28q28 27 28 66t-28 66q-27 27 -66 27h-151v310q0 38 -27 66q-28 27 -66 27q-39 0 -67 -27q-27 -28 -27 -66v-901z" />
<glyph unicode="u" horiz-adv-x="999" d="M70 416q0 -172 122 -294t294 -122h7q127 0 232 71q17 -71 90 -71q39 0 66 27q28 28 28 67v836q0 38 -28 66q-27 27 -66 27t-66 -27q-27 -28 -27 -66v-514q0 -95 -68 -162q-67 -67 -161 -67h-7q-95 0 -162 67t-67 162v514q0 38 -27 66q-28 27 -66 27q-39 0 -67 -27 q-27 -28 -27 -66v-514z" />
<glyph unicode="v" horiz-adv-x="909" d="M53 885l314 -825q15 -39 54 -54h1h1q0 -1 1 -1q7 -2 14 -3q1 -1 6 -1q6 -1 11 -1q4 0 10 1q5 0 6 1q7 1 14 3q1 0 1 1h1h1q40 15 54 54l314 825q6 17 6 34q0 19 -8 38q-16 35 -53 49q-17 7 -33 7q-19 0 -38 -9q-35 -16 -49 -52l-226 -596l-227 596q-13 36 -49 52 q-19 9 -38 9q-17 0 -33 -7q-37 -14 -52 -49q-9 -19 -9 -39q0 -16 6 -33z" />
<glyph unicode="w" horiz-adv-x="1537" d="M53 885l314 -825q14 -39 54 -54h1h1q0 -1 1 -1q7 -2 14 -3q1 -1 6 -1q6 -1 11 -1q4 0 10 1q5 0 7 1q6 1 13 3q1 0 1 1h1h1q40 15 54 54l226 595l227 -595q14 -39 54 -54h2q0 -1 1 -1q7 -2 13 -3q2 -1 7 -1q6 -1 10 -1q5 0 11 1q5 0 6 1q7 1 14 3l1 1h1h1q39 15 54 54 l314 825q6 17 6 33q0 20 -9 39q-16 35 -52 49q-17 7 -33 7q-19 0 -38 -9q-36 -16 -49 -52l-227 -596l-226 596q-14 36 -49 52q-19 9 -38 9q-17 0 -34 -7q-33 -13 -49 -45q-4 -5 -5 -9l-226 -596l-227 596q-14 36 -49 52q-19 9 -38 9q-17 0 -33 -7q-37 -14 -52 -49 q-9 -19 -9 -39q0 -16 6 -33z" />
<glyph unicode="x" horiz-adv-x="851" d="M58 75q8 -38 40 -59q23 -16 50 -16q10 0 20 2q38 8 60 40l198 298l198 -298q21 -32 59 -40q10 -2 20 -2q27 0 51 16q32 21 40 59q2 10 2 19q0 28 -16 52l-242 363l242 363q16 24 16 51q0 9 -2 19q-8 38 -40 59q-24 16 -51 16q-10 0 -20 -2q-38 -8 -59 -40l-198 -298 l-198 298q-22 32 -60 40q-10 2 -20 2q-27 0 -50 -16q-32 -21 -40 -59q-2 -10 -2 -20q0 -27 16 -50l241 -363l-241 -363q-16 -24 -16 -51q0 -10 2 -20z" />
<glyph unicode="y" horiz-adv-x="919" d="M63 888l301 -791l-144 -373q-7 -17 -7 -33q0 -19 9 -38q16 -36 52 -49q17 -7 35 -7t36 8q36 16 50 52l471 1231q6 17 6 33q0 20 -8 39q-16 35 -53 49q-17 7 -33 7q-19 0 -38 -9q-35 -16 -49 -52l-226 -596l-227 596q-13 36 -49 52q-19 9 -38 9q-16 0 -33 -7 q-37 -14 -52 -49q-9 -20 -9 -40q0 -16 6 -32z" />
<glyph unicode="z" horiz-adv-x="851" d="M56 923q0 -38 28 -66q27 -27 66 -27h377l-455 -685q-16 -23 -16 -50q0 -10 2 -20q8 -38 40 -59q18 -13 42 -15q5 -1 10 -1h552q39 0 66 27q27 28 27 67q0 38 -27 66q-27 27 -66 27h-378l456 684q15 24 15 50q0 10 -2 21q-7 38 -39 59q-23 15 -51 16h-553q-39 0 -66 -28 q-28 -27 -28 -66z" />
<glyph unicode="{" horiz-adv-x="874" d="M20 732q0 -39 27 -66q28 -27 67 -27h1h3h3q92 -2 157 -69q66 -66 66 -159v-193q0 -172 121 -294q122 -122 294 -122h2q38 0 66 27q27 28 27 67q0 38 -27 66q-28 27 -66 27h-2q-94 0 -161 67t-67 162v193q0 196 -153 322q153 125 153 321v196q0 95 67 162t161 67h2 q38 0 66 28q27 27 27 66q0 38 -27 66q-28 27 -66 27h-2q-172 0 -294 -122q-121 -122 -121 -294v-196q0 -93 -66 -159q-65 -66 -157 -69h-6h-1q-39 0 -67 -28q-27 -27 -27 -66z" />
<glyph unicode="|" horiz-adv-x="407" d="M110 -103v1701q0 39 27 66q28 27 67 27q38 0 66 -27q27 -27 27 -66v-1701q0 -39 -27 -67q-28 -27 -66 -27q-39 0 -67 27q-27 28 -27 67z" />
<glyph unicode="}" horiz-adv-x="874" d="M20 -104q0 -39 27 -67q28 -27 67 -27h1q172 0 294 122t122 294v193q0 93 65 159q65 67 158 69h3h2h2q38 0 66 27q27 27 27 66t-27 66q-28 28 -66 28h-1h-1h-5q-93 3 -158 69t-65 159v196q0 172 -122 294t-294 122h-1q-39 0 -67 -27q-27 -28 -27 -66q0 -39 27 -66 q28 -28 67 -28h1q95 0 162 -67t67 -162v-196q0 -196 152 -321q-152 -126 -152 -322v-193q0 -95 -67 -162t-162 -67h-1q-39 0 -67 -27q-27 -28 -27 -66z" />
<glyph unicode="~" horiz-adv-x="1184" d="M50 832q0 -39 27 -67l1 -1q120 -119 290 -121q169 -2 292 115q67 60 158 58q91 -3 155 -67l1 -1q28 -27 67 -27q38 0 66 27q27 28 27 66q0 39 -27 66l-1 1q-120 120 -290 122q-169 1 -291 -115h-1q-67 -60 -158 -58t-155 67l-1 1q-28 27 -66 27q-39 0 -67 -27 q-27 -28 -27 -66z" />
<glyph unicode="&#xa1;" horiz-adv-x="431" d="M110 1368q0 44 31 74q31 31 75 31q43 0 74 -31q31 -30 31 -74t-31 -75t-74 -31q-44 0 -75 31t-31 75zM122 94v984q0 39 27 67q28 27 67 27q38 0 66 -27q27 -28 27 -67v-984q0 -39 -27 -67q-28 -27 -66 -27q-39 0 -67 27q-27 28 -27 67z" />
<glyph unicode="&#xa2;" horiz-adv-x="898" d="M70 610q0 -129 80 -231q78 -101 200 -134v-166q0 -39 28 -67q27 -27 66 -27t66 27q28 28 28 67v163q207 47 275 247q15 45 -13 83q-29 38 -76 38q-67 0 -88 -61q-19 -57 -69 -93q-50 -37 -112 -37h-6q-80 0 -136 56t-56 135v264q0 79 56 135t136 56h6q62 0 112 -36 t69 -94q21 -61 88 -61q47 0 76 38q28 39 13 83q-68 200 -275 247v137q0 39 -28 66q-27 28 -66 28t-66 -28q-28 -27 -28 -66v-140q-122 -33 -200 -133q-80 -103 -80 -232v-264z" />
<glyph unicode="&#xa3;" horiz-adv-x="898" d="M80 94q0 -39 27 -67q28 -27 67 -27h514q39 0 66 27q28 28 28 67q0 38 -28 66q-27 27 -66 27h-421v448h193q39 0 67 27q27 28 27 67q0 38 -27 66q-28 27 -67 27h-193v257q0 82 58 142q58 61 138 61h7q63 0 114 -38q50 -36 69 -95q21 -63 89 -63q48 0 77 39t14 85 q-39 117 -138 189q-101 75 -225 75h-7q-158 0 -271 -114q-112 -114 -112 -274h1q-1 -9 -1 -7v-985z" />
<glyph unicode="&#xa4;" horiz-adv-x="947" d="M50 371q0 -39 27 -66q28 -28 67 -28q38 0 66 28l36 36q103 -66 224 -66h7q121 0 224 66l36 -36q28 -28 66 -28q39 0 67 28q27 27 27 66q0 38 -27 66l-38 38q61 100 61 216v20q0 115 -61 216l38 38q27 27 27 66q0 38 -27 66q-28 27 -67 27q-38 0 -66 -27l-36 -37 q-103 66 -224 66h-7q-121 0 -224 -66l-36 37q-28 27 -66 27q-39 0 -67 -27q-27 -28 -27 -66q0 -39 27 -66l38 -38q-61 -101 -61 -216v-20q0 -116 61 -216l-38 -38q-27 -28 -27 -66zM241 691v20q0 36 14 76q35 97 129 135q42 17 86 17h7q44 0 86 -17q94 -38 129 -135 q14 -40 14 -76v-20q0 -37 -14 -76q-35 -98 -129 -136q-42 -17 -86 -17h-7q-44 0 -86 17q-94 38 -129 136q-14 39 -14 76z" />
<glyph unicode="&#xa5;" horiz-adv-x="967" d="M62 1408q-12 -37 6 -71l234 -448h-122q-38 0 -66 -28q-27 -27 -27 -66t27 -66q28 -27 66 -27h210v-186h-208q-39 0 -66 -27q-27 -28 -27 -66q0 -39 27 -66q27 -28 66 -28h208v-235q0 -39 27 -67q28 -27 66 -27q39 0 67 27q27 28 27 67v235h211q39 0 66 28q28 27 28 66 q0 38 -28 66q-27 27 -66 27h-211v186h209q39 0 67 27q27 27 27 66t-27 66q-28 28 -67 28h-121l234 448q18 34 6 71q-11 37 -46 55q-34 18 -71 6t-55 -46l-250 -478l-249 478q-18 34 -55 46t-71 -6q-35 -18 -46 -55z" />
<glyph unicode="&#xa6;" horiz-adv-x="387" d="M100 -145v651q0 39 27 66q28 27 67 27q38 0 66 -27q27 -27 27 -66v-651q0 -39 -27 -67q-28 -27 -66 -27q-39 0 -67 27q-27 28 -27 67zM100 943v655q0 39 27 66q28 27 67 27q38 0 66 -27q27 -27 27 -66v-655q0 -39 -27 -67q-28 -27 -66 -27q-39 0 -67 27q-27 28 -27 67z " />
<glyph unicode="&#xa8;" horiz-adv-x="702" d="M50 1411q0 43 31 74t75 31q43 0 74 -31t31 -74q0 -44 -31 -75t-74 -31q-44 0 -75 31t-31 75zM441 1411q0 43 31 74t75 31q43 0 74 -31t31 -74q0 -44 -31 -75t-74 -31q-44 0 -75 31t-31 75z" />
<glyph unicode="&#xa9;" horiz-adv-x="1819" d="M80 739q0 343 243 586t587 243q343 0 586 -243t243 -586t-243 -587q-243 -243 -586 -243t-587 243q-243 244 -243 587zM269 739q0 -265 188 -453t453 -188q264 0 452 188t188 453t-188 452q-188 188 -452 188q-265 0 -453 -188q-188 -187 -188 -452zM536 654 q0 -157 111 -268t267 -111h6q123 0 223 73q97 71 136 184q15 45 -14 84q-28 38 -76 38q-67 0 -87 -62q-20 -57 -69 -93q-50 -37 -113 -37h-6q-79 0 -135 57q-56 56 -56 135v169q0 79 56 136q56 56 135 56h6q63 0 113 -37q49 -36 69 -93q20 -62 87 -62q48 0 76 39 q29 38 14 83q-39 113 -136 184q-100 73 -223 73h-6q-156 0 -267 -111t-111 -268v-169z" />
<glyph unicode="&#xab;" horiz-adv-x="1290" d="M55 636q8 -33 34 -53l486 -362q31 -23 69 -18q39 6 62 37t17 69q-5 38 -36 62l-386 288l386 288q31 23 36 62q6 38 -17 69t-62 37q-38 5 -69 -18l-486 -362q-26 -20 -34 -53q-5 -22 0 -46zM566 636q8 -33 34 -53l486 -362q31 -23 69 -18q39 6 62 37t17 69q-5 38 -36 62 l-386 288l386 288q31 23 36 62q6 38 -17 69t-62 37q-38 5 -69 -18l-486 -362q-26 -20 -34 -53q-5 -22 0 -46z" />
<glyph unicode="&#xad;" horiz-adv-x="893" d="M50 728q0 38 27 66q28 27 67 27h605q39 0 67 -27q27 -28 27 -66q0 -39 -27 -67q-28 -27 -67 -27h-605q-39 0 -67 27q-27 28 -27 67z" />
<glyph unicode="&#xae;" horiz-adv-x="1819" d="M80 710q0 343 243 586t587 243q343 0 586 -243t243 -586t-243 -587q-243 -243 -586 -243t-587 243q-243 244 -243 587zM269 710q0 -265 188 -453t453 -188q264 0 452 188t188 453t-188 452q-188 188 -452 188q-265 0 -453 -188q-188 -187 -188 -452zM609 292 q0 -39 28 -66q27 -27 66 -27t66 27t27 66v165h109q191 0 191 -131v-34q0 -39 28 -66q27 -27 66 -27t66 27q28 27 28 66v34q0 77 -36 129q-21 32 -95 96q131 113 131 285v6q0 156 -111 267t-268 112h-202q-39 0 -66 -28q-28 -27 -28 -66v-835zM796 644v389h109q79 0 135 -56 t56 -135v-6q0 -79 -56 -135q-56 -57 -135 -57h-109z" />
<glyph unicode="&#xaf;" horiz-adv-x="893" d="M50 1633q0 38 27 66q28 27 67 27h605q39 0 67 -27q27 -28 27 -66q0 -39 -27 -67q-28 -27 -67 -27h-605q-39 0 -67 27q-27 28 -27 67z" />
<glyph unicode="&#xb0;" horiz-adv-x="792" d="M50 1137q0 92 46 172t126 127t174 47q92 0 172.5 -46t127 -127t46.5 -173q0 -93 -46.5 -173.5t-126.5 -125.5t-173 -45q-145 0 -245.5 99.5t-100.5 244.5zM241 1137q0 -64 44.5 -109t110.5 -45t111 46t45 108q0 63 -45.5 110t-110.5 47q-64 0 -109.5 -46t-45.5 -111z" />
<glyph unicode="&#xb1;" horiz-adv-x="893" d="M50 238q0 38 27 66q28 27 67 27h605q39 0 67 -27q27 -28 27 -66q0 -39 -27 -67q-28 -27 -67 -27h-605q-39 0 -67 27q-27 28 -27 67zM50 808q0 -39 27 -67q28 -27 67 -27h209v-209q0 -39 27 -67q28 -27 67 -27q38 0 66 27q27 28 27 67v209h209q39 0 67 27q27 28 27 67 q0 38 -27 66q-28 27 -67 27h-209v209q0 39 -27 67q-28 27 -66 27q-39 0 -67 -27q-27 -28 -27 -67v-209h-209q-39 0 -67 -27q-27 -28 -27 -66z" />
<glyph unicode="&#xb4;" horiz-adv-x="404" d="M62 1210q-12 37 6 71l102 195q18 34 55 45q37 12 71 -6t46 -55t-6 -71l-102 -195q-18 -34 -55 -45q-37 -12 -72 6q-34 18 -45 55z" />
<glyph unicode="&#xb5;" horiz-adv-x="999" d="M90 -316q0 -39 27 -67q28 -27 67 -27q38 0 66 27q27 28 27 67v375q104 -69 229 -69h7q172 0 294 122t122 294v513q0 39 -28 66q-27 28 -66 28t-66 -28q-27 -27 -27 -66v-513q0 -95 -68 -162q-67 -67 -161 -67h-7q-95 0 -162 67t-67 162v513q0 39 -27 66q-28 28 -66 28 q-39 0 -67 -28q-27 -27 -27 -66v-1235z" />
<glyph unicode="&#xb7;" horiz-adv-x="311" d="M50 707q0 43 31 74t75 31q43 0 74 -31t31 -74q0 -44 -31 -75t-74 -31q-44 0 -75 31t-31 75z" />
<glyph unicode="&#xbb;" horiz-adv-x="1290" d="M55 309q-5 -38 18 -69t61 -37q39 -5 70 18l485 362q27 20 35 53q5 24 0 46q-8 33 -35 53l-485 362q-31 23 -70 18q-38 -6 -61 -37t-18 -69q6 -39 37 -62l386 -288l-386 -288q-31 -24 -37 -62zM566 309q-5 -38 18 -69t61 -37q39 -5 70 18l485 362q27 20 35 53q5 24 0 46 q-8 33 -35 53l-485 362q-31 23 -70 18q-38 -6 -61 -37t-18 -69q6 -39 37 -62l386 -288l-386 -288q-31 -24 -37 -62z" />
<glyph unicode="&#xbf;" horiz-adv-x="928" d="M80 78q0 -160 112 -274t271 -114h6q125 0 226 75q99 72 138 189q15 46 -14 85t-77 39q-68 0 -89 -63q-20 -59 -69 -95q-51 -38 -115 -38h-6q-80 0 -137 57q-57 58 -57 139v31q0 104 87 161q96 56 154 152q61 100 61 212v145q0 39 -27 67q-28 27 -67 27q-38 0 -66 -27 q-27 -28 -27 -67v-145q0 -129 -110 -196q-194 -112 -194 -332v-28zM370 1058q0 44 31 75t74 31q44 0 75 -31t31 -75q0 -43 -31 -74t-75 -31q-43 0 -74 31t-31 74z" />
<glyph unicode="&#xc0;" horiz-adv-x="923" d="M80 94q0 -39 27 -67q28 -27 67 -27q38 0 66 27q27 28 27 67v600h389v-600q0 -39 27 -67q27 -27 66 -27t66 27q28 28 28 67v1001q0 59 -19 116v2q0 2 -1 3q-62 183 -246 240q-1 0 -2 1q-15 4 -31 8h-4q-2 1 -3 1q-14 3 -29 5l-8 1q-19 1 -35 1h-7q-16 0 -36 -1l-7 -1 q-15 -2 -29 -5q-1 0 -4 -1h-3q-16 -4 -31 -8q-2 -1 -3 -1q-184 -57 -246 -240q2 5 -1 -5q-18 -57 -18 -116v-1001zM267 881v214q0 38 15 73q1 3 1 2q10 25 27 46q1 0 2 1q0 1 1 2q9 10 20 20q5 5 6 5q6 5 12 9q5 4 13 8q5 3 14 7q6 3 13 6l10 3q11 4 23 6q2 0 8 1q14 2 25 2 h9q11 0 25 -2q6 -1 8 -1q12 -2 23 -6q1 0 9 -3l14 -6l14 -7q7 -4 13 -8t12 -9q2 -2 6 -5q11 -10 20 -20q3 -4 2 -3q17 -21 28 -46l1 -2q15 -35 15 -73v-214h-389zM289 1923q11 37 45 55q35 18 72 6q37 -11 55 -45l102 -195q18 -34 6 -71t-46 -55t-71 -6q-37 11 -55 45 l-102 195q-18 34 -6 71z" />
<glyph unicode="&#xc1;" horiz-adv-x="923" d="M80 94q0 -39 27 -67q28 -27 67 -27q38 0 66 27q27 28 27 67v600h389v-600q0 -39 27 -67q27 -27 66 -27t66 27q28 28 28 67v1001q0 59 -19 116v2q0 2 -1 3q-62 183 -246 240q-1 0 -2 1q-15 4 -31 8h-4q-2 1 -3 1q-14 3 -29 5l-8 1q-19 1 -35 1h-7q-16 0 -36 -1l-7 -1 q-15 -2 -29 -5q-1 0 -4 -1h-3q-16 -4 -31 -8q-2 -1 -3 -1q-184 -57 -246 -240q2 5 -1 -5q-18 -57 -18 -116v-1001zM267 881v214q0 38 15 73q1 3 1 2q10 25 27 46q1 0 2 1q0 1 1 2q9 10 20 20q5 5 6 5q6 5 12 9q5 4 13 8q5 3 14 7q6 3 13 6l10 3q11 4 23 6q2 0 8 1q14 2 25 2 h9q11 0 25 -2q6 -1 8 -1q12 -2 23 -6q1 0 9 -3l14 -6l14 -7q7 -4 13 -8t12 -9q2 -2 6 -5q11 -10 20 -20q3 -4 2 -3q17 -21 28 -46l1 -2q15 -35 15 -73v-214h-389zM299 1662q-12 37 6 71l102 195q18 34 55 45q37 12 71 -6t46 -55t-6 -71l-102 -195q-18 -34 -55 -45 q-37 -12 -72 6q-34 18 -45 55z" />
<glyph unicode="&#xc2;" horiz-adv-x="923" d="M80 94q0 -39 27 -67q28 -27 67 -27q38 0 66 27q27 28 27 67v600h389v-600q0 -39 27 -67q27 -27 66 -27t66 27q28 28 28 67v1001q0 59 -19 116v2q0 2 -1 3q-62 183 -246 240q-1 0 -2 1q-15 4 -31 8h-4q-2 1 -3 1q-14 3 -29 5l-8 1q-19 1 -35 1h-7q-16 0 -36 -1l-7 -1 q-15 -2 -29 -5q-1 0 -4 -1h-3q-16 -4 -31 -8q-2 -1 -3 -1q-184 -57 -246 -240q2 5 -1 -5q-18 -57 -18 -116v-1001zM155 1683q0 -39 27 -67q28 -27 67 -27q38 0 66 27l146 147l147 -147q27 -27 66 -27t66 27q27 28 27 67q0 38 -27 66l-213 212q-27 28 -66 28t-66 -28 l-213 -212q-27 -28 -27 -66zM267 881v214q0 38 15 73q1 3 1 2q10 25 27 46q1 0 2 1q0 1 1 2q9 10 20 20q5 5 6 5q6 5 12 9q5 4 13 8q5 3 14 7q6 3 13 6l10 3q11 4 23 6q2 0 8 1q14 2 25 2h9q11 0 25 -2q6 -1 8 -1q12 -2 23 -6q1 0 9 -3l14 -6l14 -7q7 -4 13 -8t12 -9 q2 -2 6 -5q11 -10 20 -20q3 -4 2 -3q17 -21 28 -46l1 -2q15 -35 15 -73v-214h-389z" />
<glyph unicode="&#xc3;" horiz-adv-x="951" d="M94 94q0 -39 27 -67q28 -27 67 -27q38 0 66 27q27 28 27 67v600h389v-600q0 -39 27 -67q27 -27 66 -27t66 27q28 28 28 67v1001q0 59 -19 116v2q0 2 -1 3q-62 183 -246 240q-1 0 -2 1q-15 4 -31 8h-4q-2 1 -3 1q-14 3 -29 5l-8 1q-19 1 -35 1h-7q-16 0 -36 -1l-7 -1 q-15 -2 -29 -5q-1 0 -4 -1h-3q-16 -4 -31 -8q-2 -1 -3 -1q-184 -57 -246 -240q2 5 -1 -5q-18 -57 -18 -116v-1001zM94 1711q13 -51 63 -66q54 -17 100 29q54 54 127 31l127 -41l4 -1q87 -26 175 -2q85 24 146 89q35 38 22 89q-13 50 -63 66q-55 17 -100 -29 q-52 -52 -124 -32l-130 42q-88 27 -177 3q-87 -24 -148 -89q-36 -39 -22 -89zM281 881v214q0 38 15 73q1 3 1 2q10 25 27 46q1 0 2 1q0 1 1 2q9 10 20 20q5 5 6 5q6 5 12 9q5 4 13 8q5 3 14 7q6 3 13 6l10 3q11 4 23 6q2 0 8 1q14 2 25 2h9q11 0 25 -2q6 -1 8 -1 q12 -2 23 -6q1 0 9 -3l14 -6l14 -7q7 -4 13 -8t12 -9q2 -2 6 -5q11 -10 20 -20q3 -4 2 -3q17 -21 28 -46l1 -2q15 -35 15 -73v-214h-389z" />
<glyph unicode="&#xc4;" horiz-adv-x="923" d="M80 94q0 -39 27 -67q28 -27 67 -27q38 0 66 27q27 28 27 67v600h389v-600q0 -39 27 -67q27 -27 66 -27t66 27q28 28 28 67v1001q0 59 -19 116v2q0 2 -1 3q-62 183 -246 240q-1 0 -2 1q-15 4 -31 8h-4q-2 1 -3 1q-14 3 -29 5l-8 1q-19 1 -35 1h-7q-16 0 -36 -1l-7 -1 q-15 -2 -29 -5q-1 0 -4 -1h-3q-16 -4 -31 -8q-2 -1 -3 -1q-184 -57 -246 -240q2 5 -1 -5q-18 -57 -18 -116v-1001zM147 1709q0 43 31 74t75 31q43 0 74 -31t31 -74q0 -44 -31 -75t-74 -31q-44 0 -75 31t-31 75zM267 881v214q0 38 15 73q1 3 1 2q10 25 27 46q1 0 2 1q0 1 1 2 q9 10 20 20q5 5 6 5q6 5 12 9q5 4 13 8q5 3 14 7q6 3 13 6l10 3q11 4 23 6q2 0 8 1q14 2 25 2h9q11 0 25 -2q6 -1 8 -1q12 -2 23 -6q1 0 9 -3l14 -6l14 -7q7 -4 13 -8t12 -9q2 -2 6 -5q11 -10 20 -20q3 -4 2 -3q17 -21 28 -46l1 -2q15 -35 15 -73v-214h-389zM538 1709 q0 43 31 74t75 31q43 0 74 -31t31 -74q0 -44 -31 -75t-74 -31q-44 0 -75 31t-31 75z" />
<glyph unicode="&#xc5;" horiz-adv-x="923" d="M80 94q0 -39 27 -67q28 -27 67 -27q38 0 66 27q27 28 27 67v600h389v-600q0 -39 27 -67q27 -27 66 -27t66 27q28 28 28 67v1001q0 59 -19 116v2q0 2 -1 3q-62 183 -246 240q-1 0 -2 1q-15 4 -31 8h-4q-2 1 -3 1q-14 3 -29 5l-8 1q-19 1 -35 1h-7q-16 0 -36 -1l-7 -1 q-15 -2 -29 -5q-1 0 -4 -1h-3q-16 -4 -31 -8q-2 -1 -3 -1q-184 -57 -246 -240q2 5 -1 -5q-18 -57 -18 -116v-1001zM230 1807q0 93 66 158q65 66 158 66t158 -66q66 -65 66 -158t-66 -158q-65 -66 -158 -66t-158 66q-66 65 -66 158zM267 881v214q0 38 15 73q1 3 1 2 q10 25 27 46q1 0 2 1q0 1 1 2q9 10 20 20q5 5 6 5q6 5 12 9q5 4 13 8q5 3 14 7q6 3 13 6l10 3q11 4 23 6q2 0 8 1q14 2 25 2h9q11 0 25 -2q6 -1 8 -1q12 -2 23 -6q1 0 9 -3l14 -6l14 -7q7 -4 13 -8t12 -9q2 -2 6 -5q11 -10 20 -20q3 -4 2 -3q17 -21 28 -46l1 -2 q15 -35 15 -73v-214h-389zM354 1807q0 -41 30 -70q29 -30 70 -30t71 30q29 29 29 70t-29 71q-30 29 -71 29t-70 -29q-30 -30 -30 -71z" />
<glyph unicode="&#xc6;" horiz-adv-x="1416" d="M80 94q0 -39 27 -67q28 -27 67 -27q38 0 66 27q27 28 27 67v600h389v-529v-1v-51q0 -52 27 -83q26 -30 66 -30h494q39 0 66 27q27 28 27 67q0 38 -27 66q-27 27 -66 27h-400v509h340q39 0 66 27q28 27 28 66t-28 66q-27 28 -66 28h-340v403h400q39 0 66 28q27 27 27 66 t-27 66t-66 27h-494q-65 0 -89 -55q-39 24 -83 38q-1 0 -2 1q-15 4 -31 8h-4q-2 1 -3 1q-14 3 -29 5l-8 1q-19 1 -35 1h-7q-16 0 -36 -1l-7 -1q-15 -2 -29 -5q-1 0 -4 -1h-3q-16 -4 -31 -8q-2 -1 -3 -1q-184 -57 -246 -240q2 5 -1 -5q-18 -57 -18 -116v-1001zM267 881v214 q0 38 15 73q0 1 1 2q10 25 27 46q1 0 2 1q0 1 1 2q9 10 20 20q5 5 6 5q6 5 12 9q5 4 13 8q6 4 14 7q6 3 13 6q9 3 10 3q10 4 23 6q2 0 8 1q14 2 25 2h9q11 0 25 -2q6 -1 8 -1q12 -2 23 -6q1 0 9 -3l14 -6l14 -7q7 -4 13 -8t12 -9q2 -2 6 -5q11 -10 20 -20l2 -3 q17 -21 28 -46l1 -2q15 -35 15 -73v-214h-389z" />
<glyph unicode="&#xc8;" horiz-adv-x="871" d="M110 94q0 -39 27 -67q28 -27 67 -27h493q39 0 66 27q28 28 28 67q0 38 -28 66q-27 27 -66 27h-400v489h340q39 0 67 28q27 27 27 66t-27 66q-28 27 -67 27h-340v388h400q39 0 66 28q28 27 28 66q0 38 -28 66q-27 27 -66 27h-493q-39 0 -67 -27q-27 -28 -27 -66v-1251z M302 1878q11 37 45 55q35 18 72 6q37 -11 55 -45l102 -195q18 -34 6 -71t-46 -55t-71 -6q-37 11 -55 45l-102 195q-18 34 -6 71z" />
<glyph unicode="&#xc9;" horiz-adv-x="871" d="M110 94q0 -39 27 -67q28 -27 67 -27h493q39 0 66 27q28 28 28 67q0 38 -28 66q-27 27 -66 27h-400v489h340q39 0 67 28q27 27 27 66t-27 66q-28 27 -67 27h-340v388h400q39 0 66 28q28 27 28 66q0 38 -28 66q-27 27 -66 27h-493q-39 0 -67 -27q-27 -28 -27 -66v-1251z M318 1631q-12 37 6 71l102 195q18 34 55 45q37 12 71 -6t46 -55t-6 -71l-102 -195q-18 -34 -55 -45q-37 -12 -72 6q-34 18 -45 55z" />
<glyph unicode="&#xca;" horiz-adv-x="871" d="M110 94q0 -39 27 -67q28 -27 67 -27h493q39 0 66 27q28 28 28 67q0 38 -28 66q-27 27 -66 27h-400v489h340q39 0 67 28q27 27 27 66t-27 66q-28 27 -67 27h-340v388h400q39 0 66 28q28 27 28 66q0 38 -28 66q-27 27 -66 27h-493q-39 0 -67 -27q-27 -28 -27 -66v-1251z M133 1683q0 -39 27 -67q28 -27 67 -27q38 0 66 27l146 147l147 -147q27 -27 66 -27t66 27q27 28 27 67q0 38 -27 66l-213 212q-27 28 -66 28t-66 -28l-213 -212q-27 -28 -27 -66z" />
<glyph unicode="&#xcb;" horiz-adv-x="871" d="M110 94q0 -39 27 -67q28 -27 67 -27h493q39 0 66 27q28 28 28 67q0 38 -28 66q-27 27 -66 27h-400v489h340q39 0 67 28q27 27 27 66t-27 66q-28 27 -67 27h-340v388h400q39 0 66 28q28 27 28 66q0 38 -28 66q-27 27 -66 27h-493q-39 0 -67 -27q-27 -28 -27 -66v-1251z M133 1695q0 43 31 74t75 31q43 0 74 -31t31 -74q0 -44 -31 -75t-74 -31q-44 0 -75 31t-31 75zM524 1695q0 43 31 74t75 31q43 0 74 -31t31 -74q0 -44 -31 -75t-74 -31q-44 0 -75 31t-31 75z" />
<glyph unicode="&#xcc;" horiz-adv-x="464" d="M92 1887q11 37 45 55q35 18 72 6q37 -11 55 -45l102 -195q18 -34 6 -71t-46 -55t-71 -6q-37 11 -55 45l-102 195q-18 34 -6 71zM133 94v1286q0 39 27 66q28 27 67 27q38 0 66 -27q27 -27 27 -66v-1286q0 -39 -27 -67q-28 -27 -66 -27q-39 0 -67 27q-27 28 -27 67z" />
<glyph unicode="&#xcd;" horiz-adv-x="464" d="M92 1653q-12 37 6 71l102 195q18 34 55 45q37 12 71 -6t46 -55t-6 -71l-102 -195q-18 -34 -55 -45q-37 -12 -72 6q-34 18 -45 55zM148 94v1286q0 39 27 66q28 27 67 27q38 0 66 -27q27 -27 27 -66v-1286q0 -39 -27 -67q-28 -27 -66 -27q-39 0 -67 27q-27 28 -27 67z" />
<glyph unicode="&#xce;" horiz-adv-x="712" d="M50 1675q0 -39 27 -67q28 -27 67 -27q38 0 66 27l146 147l147 -147q27 -27 66 -27t66 27q27 28 27 67q0 38 -27 66l-213 212q-27 28 -66 28t-66 -28l-213 -212q-27 -28 -27 -66zM258 94v1286q0 39 27 66q28 27 67 27q38 0 66 -27q27 -27 27 -66v-1286q0 -39 -27 -67 q-28 -27 -66 -27q-39 0 -67 27q-27 28 -27 67z" />
<glyph unicode="&#xcf;" horiz-adv-x="702" d="M50 1691q0 43 31 74t75 31q43 0 74 -31t31 -74q0 -44 -31 -75t-74 -31q-44 0 -75 31t-31 75zM259 94v1286q0 39 27 66q28 27 67 27q38 0 66 -27q27 -27 27 -66v-1286q0 -39 -27 -67q-28 -27 -66 -27q-39 0 -67 27q-27 28 -27 67zM441 1691q0 43 31 74t75 31q43 0 74 -31 t31 -74q0 -44 -31 -75t-74 -31q-44 0 -75 31t-31 75z" />
<glyph unicode="&#xd0;" horiz-adv-x="1042" d="M80 770q0 -39 27 -66q28 -28 67 -28h9v-582q0 -39 28 -67q27 -27 66 -27h307q156 0 267 111t111 268v681q0 156 -111 267t-267 111h-307q-39 0 -66 -27q-28 -28 -28 -66v-481h-9q-39 0 -67 -28q-27 -27 -27 -66zM371 187v489h108q39 0 66 28q28 27 28 66t-28 66 q-27 28 -66 28h-108v387h213q79 0 135 -56t56 -135v-681q0 -80 -56 -136t-135 -56h-213z" />
<glyph unicode="&#xd1;" horiz-adv-x="1049" d="M110 94q0 -39 27 -66q28 -28 67 -28q38 0 66 28q27 27 27 66v889l465 -932q18 -34 55 -46q36 -12 71 6q40 20 49 65v2q1 5 1 11q1 8 1 5v1286q0 39 -28 66q-27 28 -66 28t-66 -28q-27 -27 -27 -66v-889l-465 932q-1 0 -1 2q-1 1 -2 1q-3 7 -7 11v1q-29 36 -73 36 q-39 0 -67 -28q-27 -27 -27 -66v-1286zM135 1673q13 -51 63 -66q54 -17 100 29q54 54 127 31l127 -41l4 -1q87 -26 175 -2q85 24 146 89q35 38 22 89q-13 50 -63 66q-55 17 -100 -29q-52 -52 -124 -32l-130 42q-88 27 -177 3q-87 -24 -148 -89q-36 -39 -22 -89z" />
<glyph unicode="&#xd2;" horiz-adv-x="1010" d="M80 425v624q0 175 125 300q124 124 300 124t300 -124q125 -125 125 -300v-624q0 -176 -125 -300q-124 -125 -300 -125t-300 125q-125 124 -125 300zM267 425q0 -98 70 -168q69 -70 168 -70q98 0 168 70t70 168v624q0 98 -70 168q-70 69 -168 69q-99 0 -168 -69 q-70 -70 -70 -168v-624zM333 1901q11 37 45 55q35 18 72 6q37 -11 55 -45l102 -195q18 -34 6 -71t-46 -55t-71 -6q-37 11 -55 45l-102 195q-18 34 -6 71z" />
<glyph unicode="&#xd3;" horiz-adv-x="1010" d="M80 425v624q0 175 125 300q124 124 300 124t300 -124q125 -125 125 -300v-624q0 -176 -125 -300q-124 -125 -300 -125t-300 125q-125 124 -125 300zM267 425q0 -98 70 -168q69 -70 168 -70q98 0 168 70t70 168v624q0 98 -70 168q-70 69 -168 69q-99 0 -168 -69 q-70 -70 -70 -168v-624zM356 1658q-12 37 6 71l102 195q18 34 55 45q37 12 71 -6t46 -55t-6 -71l-102 -195q-18 -34 -55 -45q-37 -12 -72 6q-34 18 -45 55z" />
<glyph unicode="&#xd4;" horiz-adv-x="1010" d="M80 425v624q0 175 125 300q124 124 300 124t300 -124q125 -125 125 -300v-624q0 -176 -125 -300q-124 -125 -300 -125t-300 125q-125 124 -125 300zM202 1672q0 -39 27 -67q28 -27 67 -27q38 0 66 27l146 147l147 -147q27 -27 66 -27t66 27q27 28 27 67q0 38 -27 66 l-213 212q-27 28 -66 28t-66 -28l-213 -212q-27 -28 -27 -66zM267 425q0 -98 70 -168q69 -70 168 -70q98 0 168 70t70 168v624q0 98 -70 168q-70 69 -168 69q-99 0 -168 -69q-70 -70 -70 -168v-624z" />
<glyph unicode="&#xd5;" horiz-adv-x="1010" d="M80 425v624q0 175 125 300q124 124 300 124t300 -124q125 -125 125 -300v-624q0 -176 -125 -300q-124 -125 -300 -125t-300 125q-125 124 -125 300zM143 1660q13 -51 63 -66q54 -17 100 29q54 54 127 31l127 -41l4 -1q87 -26 175 -2q85 24 146 89q35 38 22 89 q-13 50 -63 66q-55 17 -100 -29q-52 -52 -124 -32l-130 42q-88 27 -177 3q-87 -24 -148 -89q-36 -39 -22 -89zM267 425q0 -98 70 -168q69 -70 168 -70q98 0 168 70t70 168v624q0 98 -70 168q-70 69 -168 69q-99 0 -168 -69q-70 -70 -70 -168v-624z" />
<glyph unicode="&#xd6;" horiz-adv-x="1010" d="M80 425v624q0 175 125 300q124 124 300 124t300 -124q125 -125 125 -300v-624q0 -176 -125 -300q-124 -125 -300 -125t-300 125q-125 124 -125 300zM201 1700q0 43 31 74t75 31q43 0 74 -31t31 -74q0 -44 -31 -75t-74 -31q-44 0 -75 31t-31 75zM267 425q0 -98 70 -168 q69 -70 168 -70q98 0 168 70t70 168v624q0 98 -70 168q-70 69 -168 69q-99 0 -168 -69q-70 -70 -70 -168v-624zM592 1700q0 43 31 74t75 31q43 0 74 -31t31 -74q0 -44 -31 -75t-74 -31q-44 0 -75 31t-31 75z" />
<glyph unicode="&#xd7;" horiz-adv-x="716" d="M50 516q0 -39 27 -67q28 -27 67 -27q38 0 66 27l148 148l148 -148q27 -27 66 -27t66 27q28 28 28 67q0 38 -28 66l-148 148l148 148q28 27 28 66t-28 66q-27 28 -66 28t-66 -28l-148 -148l-148 148q-28 28 -66 28q-39 0 -67 -28q-27 -27 -27 -66t27 -66l149 -148 l-149 -148q-27 -28 -27 -66z" />
<glyph unicode="&#xd8;" horiz-adv-x="1010" d="M80 418q0 -154 100 -273l-38 -99q-14 -36 2 -71q15 -36 52 -49q36 -14 71 1q35 16 49 52l19 50q82 -36 170 -36q176 0 300 125q125 124 125 300v624q0 154 -100 273l38 98q14 36 -2 72q-16 35 -52 49t-71 -2q-36 -16 -50 -52l-19 -49q-81 35 -169 35q-176 0 -300 -124 q-125 -125 -125 -300v-624zM267 418v624q0 98 70 168q70 69 168 69q52 0 102 -23l-336 -874q-4 23 -4 36zM403 204l336 874q4 -24 4 -36v-624q0 -98 -70 -168t-168 -70q-52 0 -102 24z" />
<glyph unicode="&#xd9;" horiz-adv-x="1010" d="M80 438v942q0 39 27 67q28 27 67 27q38 0 66 -27q27 -28 27 -67v-946q0 -92 59 -162q59 -72 149 -83q107 -13 188 58q80 71 80 178v955q0 39 27 67q27 27 66 27t66 -27q28 -28 28 -67v-955q0 -181 -132 -307q-131 -126 -313 -117q-171 8 -289 137q-116 127 -116 300z M338 1904q11 37 45 55q35 18 72 6q37 -11 55 -45l102 -195q18 -34 6 -71t-46 -55t-71 -6q-37 11 -55 45l-102 195q-18 34 -6 71z" />
<glyph unicode="&#xda;" horiz-adv-x="1010" d="M80 438v942q0 39 27 67q28 27 67 27q38 0 66 -27q27 -28 27 -67v-946q0 -92 59 -162q59 -72 149 -83q107 -13 188 58q80 71 80 178v955q0 39 27 67q27 27 66 27t66 -27q28 -28 28 -67v-955q0 -181 -132 -307q-131 -126 -313 -117q-171 8 -289 137q-116 127 -116 300z M357 1643q-12 37 6 71l102 195q18 34 55 45q37 12 71 -6t46 -55t-6 -71l-102 -195q-18 -34 -55 -45q-37 -12 -72 6q-34 18 -45 55z" />
<glyph unicode="&#xdb;" horiz-adv-x="1010" d="M80 438v942q0 39 27 67q28 27 67 27q38 0 66 -27q27 -28 27 -67v-946q0 -92 59 -162q59 -72 149 -83q107 -13 188 58q80 71 80 178v955q0 39 27 67q27 27 66 27t66 -27q28 -28 28 -67v-955q0 -181 -132 -307q-131 -126 -313 -117q-171 8 -289 137q-116 127 -116 300z M210 1693q0 -39 27 -67q28 -27 67 -27q38 0 66 27l146 147l147 -147q27 -27 66 -27t66 27q27 28 27 67q0 38 -27 66l-213 212q-27 28 -66 28t-66 -28l-213 -212q-27 -28 -27 -66z" />
<glyph unicode="&#xdc;" horiz-adv-x="1010" d="M80 438v942q0 39 27 67q28 27 67 27q38 0 66 -27q27 -28 27 -67v-946q0 -92 59 -162q59 -72 149 -83q107 -13 188 58q80 71 80 178v955q0 39 27 67q27 27 66 27t66 -27q28 -28 28 -67v-955q0 -181 -132 -307q-131 -126 -313 -117q-171 8 -289 137q-116 127 -116 300z M202 1711q0 43 31 74t75 31q43 0 74 -31t31 -74q0 -44 -31 -75t-74 -31q-44 0 -75 31t-31 75zM593 1711q0 43 31 74t75 31q43 0 74 -31t31 -74q0 -44 -31 -75t-74 -31q-44 0 -75 31t-31 75z" />
<glyph unicode="&#xdd;" horiz-adv-x="967" d="M62 1408q-12 -37 6 -71l322 -617v-626q0 -39 27 -67q28 -27 66 -27q39 0 67 27q27 28 27 67v626l322 617q18 34 6 71q-11 37 -46 55q-34 18 -71 6t-55 -46l-250 -478l-249 478q-18 34 -55 46t-71 -6q-35 -18 -46 -55zM363 1662q-12 37 6 71l102 195q18 34 55 45 q37 12 71 -6t46 -55t-6 -71l-102 -195q-18 -34 -55 -45q-37 -12 -72 6q-34 18 -45 55z" />
<glyph unicode="&#xde;" horiz-adv-x="867" d="M110 95q0 -39 27 -67q28 -27 67 -27q38 0 66 27q27 28 27 67v204h95q176 0 301 125q124 124 124 300q0 175 -124 300q-125 125 -301 125h-95v219q0 38 -27 66q-28 27 -66 27q-39 0 -67 -27q-27 -28 -27 -66v-1273zM297 473v476h95q99 0 169 -70q69 -70 69 -168 q0 -99 -69 -168q-70 -70 -169 -70h-95z" />
<glyph unicode="&#xdf;" horiz-adv-x="976" d="M80 36q0 -39 27 -67q28 -27 67 -27q38 0 66 27q27 28 27 67l1 1022q5 88 69 151q65 62 154 64q81 -3 137 -61t56 -139v-6q0 -62 -35 -113q-34 -50 -90 -73q-74 -29 -74 -105v-3q0 -78 78 -107q64 -24 105 -81q41 -58 41 -129v-36q0 -95 -68 -162q-67 -67 -161 -67h-2 q-38 0 -66 -27q-27 -28 -27 -66q0 -39 27 -67q28 -27 66 -27h2q171 0 293 121q121 121 122 292l1 1v38q0 197 -156 321q132 116 132 290v6q0 151 -103 262q-103 110 -252 123q-16 3 -34 1q-168 -5 -285 -125q-118 -121 -118 -290v-1008z" />
<glyph unicode="&#xe0;" d="M50 416q0 -172 122 -294t294 -122h7q127 0 232 71q17 -71 90 -71q39 0 66 27q28 28 28 67v836q0 38 -28 66q-27 27 -66 27q-73 0 -90 -71q-106 71 -232 71h-7q-172 0 -294 -122t-122 -294v-191zM237 416v191q0 95 67 162t162 67h7q94 0 161 -67q68 -67 68 -162v-191 q0 -95 -68 -162q-67 -67 -161 -67h-7q-95 0 -162 67t-67 162zM339 1483q11 37 45 55q35 18 72 6q37 -11 55 -45l102 -195q18 -34 6 -71t-46 -55t-71 -6q-37 11 -55 45l-102 195q-18 34 -6 71z" />
<glyph unicode="&#xe1;" d="M50 416q0 -172 122 -294t294 -122h7q127 0 232 71q17 -71 90 -71q39 0 66 27q28 28 28 67v836q0 38 -28 66q-27 27 -66 27q-73 0 -90 -71q-106 71 -232 71h-7q-172 0 -294 -122t-122 -294v-191zM237 416v191q0 95 67 162t162 67h7q94 0 161 -67q68 -67 68 -162v-191 q0 -95 -68 -162q-67 -67 -161 -67h-7q-95 0 -162 67t-67 162zM370 1259q-12 37 6 71l102 195q18 34 55 45q37 12 71 -6t46 -55t-6 -71l-102 -195q-18 -34 -55 -45q-37 -12 -72 6q-34 18 -45 55z" />
<glyph unicode="&#xe2;" d="M50 416q0 -172 122 -294t294 -122h7q127 0 232 71q17 -71 90 -71q39 0 66 27q28 28 28 67v836q0 38 -28 66q-27 27 -66 27q-73 0 -90 -71q-106 71 -232 71h-7q-172 0 -294 -122t-122 -294v-191zM178 1275q0 -39 27 -67q28 -27 67 -27q38 0 66 27l146 147l147 -147 q27 -27 66 -27t66 27q27 28 27 67q0 38 -27 66l-213 212q-27 28 -66 28t-66 -28l-213 -212q-27 -28 -27 -66zM237 416v191q0 95 67 162t162 67h7q94 0 161 -67q68 -67 68 -162v-191q0 -95 -68 -162q-67 -67 -161 -67h-7q-95 0 -162 67t-67 162z" />
<glyph unicode="&#xe3;" d="M50 416q0 -172 122 -294t294 -122h7q127 0 232 71q17 -71 90 -71q39 0 66 27q28 28 28 67v836q0 38 -28 66q-27 27 -66 27q-73 0 -90 -71q-106 71 -232 71h-7q-172 0 -294 -122t-122 -294v-191zM105 1260q13 -51 63 -66q54 -17 100 29q54 54 127 31l127 -41l4 -1 q87 -26 175 -2q85 24 146 89q35 38 22 89q-13 50 -63 66q-55 17 -100 -29q-52 -52 -124 -32l-130 42q-88 27 -177 3q-87 -24 -148 -89q-36 -39 -22 -89zM237 416v191q0 95 67 162t162 67h7q94 0 161 -67q68 -67 68 -162v-191q0 -95 -68 -162q-67 -67 -161 -67h-7 q-95 0 -162 67t-67 162z" />
<glyph unicode="&#xe4;" d="M50 416q0 -172 122 -294t294 -122h7q127 0 232 71q17 -71 90 -71q39 0 66 27q28 28 28 67v836q0 38 -28 66q-27 27 -66 27q-73 0 -90 -71q-106 71 -232 71h-7q-172 0 -294 -122t-122 -294v-191zM181 1308q0 43 31 74t75 31q43 0 74 -31t31 -74q0 -44 -31 -75t-74 -31 q-44 0 -75 31t-31 75zM237 416v191q0 95 67 162t162 67h7q94 0 161 -67q68 -67 68 -162v-191q0 -95 -68 -162q-67 -67 -161 -67h-7q-95 0 -162 67t-67 162zM572 1308q0 43 31 74t75 31q43 0 74 -31t31 -74q0 -44 -31 -75t-74 -31q-44 0 -75 31t-31 75z" />
<glyph unicode="&#xe5;" d="M50 416q0 -172 122 -294t294 -122h7q127 0 232 71q17 -71 90 -71q39 0 66 27q28 28 28 67v836q0 38 -28 66q-27 27 -66 27q-73 0 -90 -71q-106 71 -232 71h-7q-172 0 -294 -122t-122 -294v-191zM237 416v191q0 95 67 162t162 67h7q94 0 161 -67q68 -67 68 -162v-191 q0 -95 -68 -162q-67 -67 -161 -67h-7q-95 0 -162 67t-67 162zM245 1419q0 93 66 158q65 66 158 66t158 -66q66 -65 66 -158t-66 -158q-65 -66 -158 -66t-158 66q-66 65 -66 158zM369 1419q0 -41 30 -70q29 -30 70 -30t71 30q29 29 29 70t-29 71q-30 29 -71 29t-70 -29 q-30 -30 -30 -71z" />
<glyph unicode="&#xe8;" d="M70 412q2 -171 123 -291q122 -121 293 -121h7q210 0 335 170q28 38 14 84q-14 45 -59 60q-65 23 -105 -32q-69 -95 -185 -95h-7q-95 0 -162 67t-67 162l465 1q107 0 161 93q26 43 26 94q0 36 -7 71q-7 44 -24 85q-31 76 -89 135q-122 124 -296 124h-7q-172 0 -294 -122 q-122 -121 -122 -293v-192zM257 603v1q0 94 67 161t162 67h7q93 0 161 -67q66 -68 67 -162h-464zM323 1494q11 37 45 55q35 18 72 6q37 -11 55 -45l102 -195q18 -34 6 -71t-46 -55t-71 -6q-37 11 -55 45l-102 195q-18 34 -6 71z" />
<glyph unicode="&#xe9;" d="M70 412q2 -171 123 -291q122 -121 293 -121h7q210 0 335 170q28 38 14 84q-14 45 -59 60q-65 23 -105 -32q-69 -95 -185 -95h-7q-95 0 -162 67t-67 162l465 1q107 0 161 93q26 43 26 94q0 36 -7 71q-7 44 -24 85q-31 76 -89 135q-122 124 -296 124h-7q-172 0 -294 -122 q-122 -121 -122 -293v-192zM257 603v1q0 94 67 161t162 67h7q93 0 161 -67q66 -68 67 -162h-464zM324 1221q-12 37 6 71l102 195q18 34 55 45q37 12 71 -6t46 -55t-6 -71l-102 -195q-18 -34 -55 -45q-37 -12 -72 6q-34 18 -45 55z" />
<glyph unicode="&#xea;" d="M70 412q2 -171 123 -291q122 -121 293 -121h7q210 0 335 170q28 38 14 84q-14 45 -59 60q-65 23 -105 -32q-69 -95 -185 -95h-7q-95 0 -162 67t-67 162l465 1q107 0 161 93q26 43 26 94q0 36 -7 71q-7 44 -24 85q-31 76 -89 135q-122 124 -296 124h-7q-172 0 -294 -122 q-122 -121 -122 -293v-192zM187 1255q0 -39 27 -67q28 -27 67 -27q38 0 66 27l146 147l147 -147q27 -27 66 -27t66 27q27 28 27 67q0 38 -27 66l-213 212q-27 28 -66 28t-66 -28l-213 -212q-27 -28 -27 -66zM257 603v1q0 94 67 161t162 67h7q93 0 161 -67q66 -68 67 -162 h-464z" />
<glyph unicode="&#xeb;" d="M70 412q2 -171 123 -291q122 -121 293 -121h7q210 0 335 170q28 38 14 84q-14 45 -59 60q-65 23 -105 -32q-69 -95 -185 -95h-7q-95 0 -162 67t-67 162l465 1q107 0 161 93q26 43 26 94q0 36 -7 71q-7 44 -24 85q-31 76 -89 135q-122 124 -296 124h-7q-172 0 -294 -122 q-122 -121 -122 -293v-192zM163 1285q0 43 31 74t75 31q43 0 74 -31t31 -74q0 -44 -31 -75t-74 -31q-44 0 -75 31t-31 75zM257 603v1q0 94 67 161t162 67h7q93 0 161 -67q66 -68 67 -162h-464zM554 1285q0 43 31 74t75 31q43 0 74 -31t31 -74q0 -44 -31 -75t-74 -31 q-44 0 -75 31t-31 75z" />
<glyph unicode="&#xec;" horiz-adv-x="444" d="M82 1509q11 37 45 55q35 18 72 6q37 -11 55 -45l102 -195q18 -34 6 -71t-46 -55t-71 -6q-37 11 -55 45l-102 195q-18 34 -6 71zM133 94v833q0 39 27 66q28 27 67 27q38 0 66 -27q27 -27 27 -66v-833q0 -39 -27 -67q-28 -27 -66 -27q-39 0 -67 27q-27 28 -27 67z" />
<glyph unicode="&#xed;" horiz-adv-x="444" d="M82 1252q-12 37 6 71l102 195q18 34 55 45q37 12 71 -6t46 -55t-6 -71l-102 -195q-18 -34 -55 -45q-37 -12 -72 6q-34 18 -45 55zM129 94v833q0 39 27 66q28 27 67 27q38 0 66 -27q27 -27 27 -66v-833q0 -39 -27 -67q-28 -27 -66 -27q-39 0 -67 27q-27 28 -27 67z" />
<glyph unicode="&#xee;" horiz-adv-x="712" d="M50 1273q0 -39 27 -67q28 -27 67 -27q38 0 66 27l146 147l147 -147q27 -27 66 -27t66 27q27 28 27 67q0 38 -27 66l-213 212q-27 28 -66 28t-66 -28l-213 -212q-27 -28 -27 -66zM271 94v833q0 39 27 66q28 27 67 27q38 0 66 -27q27 -27 27 -66v-833q0 -39 -27 -67 q-28 -27 -66 -27q-39 0 -67 27q-27 28 -27 67z" />
<glyph unicode="&#xef;" horiz-adv-x="702" d="M50 1302q0 43 31 74t75 31q43 0 74 -31t31 -74q0 -44 -31 -75t-74 -31q-44 0 -75 31t-31 75zM263 94v833q0 39 27 66q28 27 67 27q38 0 66 -27q27 -27 27 -66v-833q0 -39 -27 -67q-28 -27 -66 -27q-39 0 -67 27q-27 28 -27 67zM441 1302q0 43 31 74t75 31q43 0 74 -31 t31 -74q0 -44 -31 -75t-74 -31q-44 0 -75 31t-31 75z" />
<glyph unicode="&#xf0;" horiz-adv-x="999" d="M70 416q0 -172 122 -294t294 -122h7q127 0 232 71q17 -71 90 -71q39 0 66 27q28 28 28 67v892l-1 4q0 134 -80 244l53 53q28 28 28 66q0 39 -28 67q-27 27 -66 27t-66 -27l-63 -63q-90 48 -191 49q-39 0 -66 -28q-28 -27 -28 -66t28 -66q27 -27 66 -28q23 0 47 -5 l-24 -24q-27 -28 -27 -67q0 -38 27 -66q27 -27 66 -27t66 27l43 43q29 -54 29 -111v-118q-105 69 -229 69h-7q-172 0 -294 -122t-122 -294v-107zM257 416v107q0 95 67 162t162 67h7q94 0 161 -67q68 -67 68 -162v-107q0 -95 -68 -162q-67 -67 -161 -67h-7q-95 0 -162 67 t-67 162z" />
<glyph unicode="&#xf1;" horiz-adv-x="999" d="M90 94q0 -39 27 -67q28 -27 67 -27q38 0 66 27q27 28 27 67v513q0 95 67 162t162 67h7q94 0 161 -67q68 -67 68 -162v-513q0 -39 27 -67q27 -27 66 -27t66 27q28 28 28 67v513q0 172 -122 294t-294 122h-7q-127 0 -232 -71q-18 71 -90 71q-39 0 -67 -27q-27 -28 -27 -66 v-836zM145 1259q13 -51 63 -66q54 -17 100 29q54 54 127 31l127 -41l4 -1q87 -26 175 -2q85 24 146 89q35 38 22 89q-13 50 -63 66q-55 17 -100 -29q-52 -52 -124 -32l-130 42q-88 27 -177 3q-87 -24 -148 -89q-36 -39 -22 -89z" />
<glyph unicode="&#xf2;" d="M70 416q0 -172 122 -294t294 -122h7q172 0 294 122t122 294v191q0 172 -122 294t-294 122h-7q-172 0 -294 -122t-122 -294v-191zM257 416v191q0 95 67 162t162 67h7q94 0 161 -67q68 -67 68 -162v-191q0 -95 -68 -162q-67 -67 -161 -67h-7q-95 0 -162 67t-67 162z M345 1483q11 37 45 55q35 18 72 6q37 -11 55 -45l102 -195q18 -34 6 -71t-46 -55t-71 -6q-37 11 -55 45l-102 195q-18 34 -6 71z" />
<glyph unicode="&#xf3;" d="M70 416q0 -172 122 -294t294 -122h7q172 0 294 122t122 294v191q0 172 -122 294t-294 122h-7q-172 0 -294 -122t-122 -294v-191zM257 416v191q0 95 67 162t162 67h7q94 0 161 -67q68 -67 68 -162v-191q0 -95 -68 -162q-67 -67 -161 -67h-7q-95 0 -162 67t-67 162z M344 1236q-12 37 6 71l102 195q18 34 55 45q37 12 71 -6t46 -55t-6 -71l-102 -195q-18 -34 -55 -45q-37 -12 -72 6q-34 18 -45 55z" />
<glyph unicode="&#xf4;" d="M70 416q0 -172 122 -294t294 -122h7q172 0 294 122t122 294v191q0 172 -122 294t-294 122h-7q-172 0 -294 -122t-122 -294v-191zM169 1273q0 -39 27 -67q28 -27 67 -27q38 0 66 27l146 147l147 -147q27 -27 66 -27t66 27q27 28 27 67q0 38 -27 66l-213 212q-27 28 -66 28 t-66 -28l-213 -212q-27 -28 -27 -66zM257 416v191q0 95 67 162t162 67h7q94 0 161 -67q68 -67 68 -162v-191q0 -95 -68 -162q-67 -67 -161 -67h-7q-95 0 -162 67t-67 162z" />
<glyph unicode="&#xf5;" d="M70 416q0 -172 122 -294t294 -122h7q172 0 294 122t122 294v191q0 172 -122 294t-294 122h-7q-172 0 -294 -122t-122 -294v-191zM94 1256q13 -51 63 -66q54 -17 100 29q54 54 127 31l127 -41l4 -1q87 -26 175 -2q85 24 146 89q35 38 22 89q-13 50 -63 66q-55 17 -100 -29 q-52 -52 -124 -32l-130 42q-88 27 -177 3q-87 -24 -148 -89q-36 -39 -22 -89zM257 416v191q0 95 67 162t162 67h7q94 0 161 -67q68 -67 68 -162v-191q0 -95 -68 -162q-67 -67 -161 -67h-7q-95 0 -162 67t-67 162z" />
<glyph unicode="&#xf6;" d="M70 416q0 -172 122 -294t294 -122h7q172 0 294 122t122 294v191q0 172 -122 294t-294 122h-7q-172 0 -294 -122t-122 -294v-191zM184 1297q0 43 31 74t75 31q43 0 74 -31t31 -74q0 -44 -31 -75t-74 -31q-44 0 -75 31t-31 75zM257 416v191q0 95 67 162t162 67h7 q94 0 161 -67q68 -67 68 -162v-191q0 -95 -68 -162q-67 -67 -161 -67h-7q-95 0 -162 67t-67 162zM575 1297q0 43 31 74t75 31q43 0 74 -31t31 -74q0 -44 -31 -75t-74 -31q-44 0 -75 31t-31 75z" />
<glyph unicode="&#xf7;" horiz-adv-x="893" d="M50 728q0 38 27 66q28 27 67 27h605q39 0 67 -27q27 -28 27 -66q0 -39 -27 -67q-28 -27 -67 -27h-605q-39 0 -67 27q-27 28 -27 67zM340 434q0 43 31 74t75 31q43 0 74 -31t31 -74q0 -44 -31 -75t-74 -31q-44 0 -75 31t-31 75zM340 1013q0 43 31 74t75 31q43 0 74 -31 t31 -74q0 -44 -31 -75t-74 -31q-44 0 -75 31t-31 75z" />
<glyph unicode="&#xf8;" horiz-adv-x="1003" d="M70 173q0 -38 27 -66q27 -26 64 -27q36 -1 64 23q118 -103 273 -103h7q172 0 294 122t122 294v191q0 83 -32 160l17 17q27 27 27 66q0 38 -27 66q-26 26 -63 27t-64 -23q-118 103 -274 103h-7q-172 0 -294 -122t-122 -294v-191q0 -83 32 -160l-17 -17q-27 -27 -27 -66z M270 412v2v2v191q0 95 67 162t161 67h7q77 0 140 -49zM359 236l375 375v-2v-2v-191q0 -95 -67 -162t-162 -67h-7q-77 0 -139 49z" />
<glyph unicode="&#xf9;" horiz-adv-x="999" d="M70 416q0 -172 122 -294t294 -122h7q127 0 232 71q17 -71 90 -71q39 0 66 27q28 28 28 67v836q0 38 -28 66q-27 27 -66 27t-66 -27q-27 -28 -27 -66v-514q0 -95 -68 -162q-67 -67 -161 -67h-7q-95 0 -162 67t-67 162v514q0 38 -27 66q-28 27 -66 27q-39 0 -67 -27 q-27 -28 -27 -66v-514zM319 1494q11 37 45 55q35 18 72 6q37 -11 55 -45l102 -195q18 -34 6 -71t-46 -55t-71 -6q-37 11 -55 45l-102 195q-18 34 -6 71z" />
<glyph unicode="&#xfa;" horiz-adv-x="999" d="M70 416q0 -172 122 -294t294 -122h7q127 0 232 71q17 -71 90 -71q39 0 66 27q28 28 28 67v836q0 38 -28 66q-27 27 -66 27t-66 -27q-27 -28 -27 -66v-514q0 -95 -68 -162q-67 -67 -161 -67h-7q-95 0 -162 67t-67 162v514q0 38 -27 66q-28 27 -66 27q-39 0 -67 -27 q-27 -28 -27 -66v-514zM353 1237q-12 37 6 71l102 195q18 34 55 45q37 12 71 -6t46 -55t-6 -71l-102 -195q-18 -34 -55 -45q-37 -12 -72 6q-34 18 -45 55z" />
<glyph unicode="&#xfb;" horiz-adv-x="999" d="M70 416q0 -172 122 -294t294 -122h7q127 0 232 71q17 -71 90 -71q39 0 66 27q28 28 28 67v836q0 38 -28 66q-27 27 -66 27t-66 -27q-27 -28 -27 -66v-514q0 -95 -68 -162q-67 -67 -161 -67h-7q-95 0 -162 67t-67 162v514q0 38 -27 66q-28 27 -66 27q-39 0 -67 -27 q-27 -28 -27 -66v-514zM181 1281q0 -39 27 -67q28 -27 67 -27q38 0 66 27l146 147l147 -147q27 -27 66 -27t66 27q27 28 27 67q0 38 -27 66l-213 212q-27 28 -66 28t-66 -28l-213 -212q-27 -28 -27 -66z" />
<glyph unicode="&#xfc;" horiz-adv-x="999" d="M70 416q0 -172 122 -294t294 -122h7q127 0 232 71q17 -71 90 -71q39 0 66 27q28 28 28 67v836q0 38 -28 66q-27 27 -66 27t-66 -27q-27 -28 -27 -66v-514q0 -95 -68 -162q-67 -67 -161 -67h-7q-95 0 -162 67t-67 162v514q0 38 -27 66q-28 27 -66 27q-39 0 -67 -27 q-27 -28 -27 -66v-514zM200 1309q0 43 31 74t75 31q43 0 74 -31t31 -74q0 -44 -31 -75t-74 -31q-44 0 -75 31t-31 75zM591 1309q0 43 31 74t75 31q43 0 74 -31t31 -74q0 -44 -31 -75t-74 -31q-44 0 -75 31t-31 75z" />
<glyph unicode="&#xfd;" horiz-adv-x="969" d="M83 888l301 -791l-144 -373q-14 -36 2 -71q16 -36 52 -49q36 -14 71 1q36 16 50 52l471 1231q13 36 -2 72q-16 35 -53 49q-36 14 -71 -2t-49 -52l-226 -596l-227 596q-13 36 -49 52q-35 16 -71 2q-37 -14 -52 -49q-16 -36 -3 -72zM368 1236q-12 37 6 71l102 195 q18 34 55 45q37 12 71 -6t46 -55t-6 -71l-102 -195q-18 -34 -55 -45q-37 -12 -72 6q-34 18 -45 55z" />
<glyph unicode="&#xfe;" horiz-adv-x="847" d="M90 95q0 -39 27 -67q28 -27 67 -27q38 0 66 27q27 28 27 67v204h95q176 0 301 125q124 124 124 300q0 175 -124 300q-125 125 -301 125h-95v219q0 38 -27 66q-28 27 -66 27q-39 0 -67 -27q-27 -28 -27 -66v-1273zM277 473v476h95q99 0 169 -70q69 -70 69 -168 q0 -99 -69 -168q-70 -70 -169 -70h-95z" />
<glyph unicode="&#xff;" horiz-adv-x="929" d="M63 888l301 -791l-144 -373q-14 -36 2 -71q16 -36 52 -49q36 -14 71 1q36 16 50 52l471 1231q13 36 -2 72q-16 35 -53 49q-36 14 -71 -2t-49 -52l-226 -596l-227 596q-13 36 -49 52q-35 16 -71 2q-37 -14 -52 -49q-16 -36 -3 -72zM157 1301q0 43 31 74t75 31q43 0 74 -31 t31 -74q0 -44 -31 -75t-74 -31q-44 0 -75 31t-31 75zM548 1301q0 43 31 74t75 31q43 0 74 -31t31 -74q0 -44 -31 -75t-74 -31q-44 0 -75 31t-31 75z" />
<glyph unicode="&#x178;" horiz-adv-x="967" d="M62 1408q-12 -37 6 -71l322 -617v-626q0 -39 27 -67q28 -27 66 -27q39 0 67 27q27 28 27 67v626l322 617q18 34 6 71q-11 37 -46 55q-34 18 -71 6t-55 -46l-250 -478l-249 478q-18 34 -55 46t-71 -6q-35 -18 -46 -55zM178 1688q0 43 31 74t75 31q43 0 74 -31t31 -74 q0 -44 -31 -75t-74 -31q-44 0 -75 31t-31 75zM569 1688q0 43 31 74t75 31q43 0 74 -31t31 -74q0 -44 -31 -75t-74 -31q-44 0 -75 31t-31 75z" />
<glyph unicode="&#x2c6;" horiz-adv-x="712" d="M50 1550q0 -39 27 -67q28 -27 67 -27q38 0 66 27l146 147l147 -147q27 -27 66 -27t66 27q27 28 27 67q0 38 -27 66l-213 212q-27 28 -66 28t-66 -28l-213 -212q-27 -28 -27 -66z" />
<glyph unicode="&#x2dc;" horiz-adv-x="891" d="M64 1457q13 -51 63 -66q54 -17 100 29q54 54 127 31l127 -41l4 -1q87 -26 175 -2q85 24 146 89q35 38 22 89q-13 50 -63 66q-55 17 -100 -29q-52 -52 -124 -32l-130 42q-88 27 -177 3q-87 -24 -148 -89q-36 -39 -22 -89z" />
<glyph unicode="&#x2000;" horiz-adv-x="1015" />
<glyph unicode="&#x2001;" horiz-adv-x="2031" />
<glyph unicode="&#x2002;" horiz-adv-x="1015" />
<glyph unicode="&#x2003;" horiz-adv-x="2031" />
<glyph unicode="&#x2004;" horiz-adv-x="677" />
<glyph unicode="&#x2005;" horiz-adv-x="507" />
<glyph unicode="&#x2006;" horiz-adv-x="338" />
<glyph unicode="&#x2007;" horiz-adv-x="338" />
<glyph unicode="&#x2008;" horiz-adv-x="253" />
<glyph unicode="&#x2009;" horiz-adv-x="406" />
<glyph unicode="&#x200a;" horiz-adv-x="112" />
<glyph unicode="&#x2010;" horiz-adv-x="893" d="M50 728q0 38 27 66q28 27 67 27h605q39 0 67 -27q27 -28 27 -66q0 -39 -27 -67q-28 -27 -67 -27h-605q-39 0 -67 27q-27 28 -27 67z" />
<glyph unicode="&#x2011;" horiz-adv-x="893" d="M50 728q0 38 27 66q28 27 67 27h605q39 0 67 -27q27 -28 27 -66q0 -39 -27 -67q-28 -27 -67 -27h-605q-39 0 -67 27q-27 28 -27 67z" />
<glyph unicode="&#x2012;" horiz-adv-x="893" d="M50 728q0 38 27 66q28 27 67 27h605q39 0 67 -27q27 -28 27 -66q0 -39 -27 -67q-28 -27 -67 -27h-605q-39 0 -67 27q-27 28 -27 67z" />
<glyph unicode="&#x2013;" horiz-adv-x="893" d="M50 728q0 38 27 66q28 27 67 27h605q39 0 67 -27q27 -28 27 -66q0 -39 -27 -67q-28 -27 -67 -27h-605q-39 0 -67 27q-27 28 -27 67z" />
<glyph unicode="&#x2014;" horiz-adv-x="1292" d="M50 728q0 38 27 66q28 27 67 27h1004q39 0 67 -27q27 -28 27 -66q0 -39 -27 -67q-28 -27 -67 -27h-1004q-39 0 -67 27q-27 28 -27 67z" />
<glyph unicode="&#x2018;" horiz-adv-x="404" d="M62 1315q-12 37 6 71l102 195q18 34 55 45q37 12 71 -6t46 -55t-6 -71l-102 -195q-18 -34 -55 -45q-37 -12 -72 6q-34 18 -45 55z" />
<glyph unicode="&#x2019;" horiz-adv-x="404" d="M62 1315q-12 37 6 71l102 195q18 34 55 45q37 12 71 -6t46 -55t-6 -71l-102 -195q-18 -34 -55 -45q-37 -12 -72 6q-34 18 -45 55z" />
<glyph unicode="&#x201a;" horiz-adv-x="404" d="M62 -148q-12 37 6 71l102 195q18 34 55 45q37 12 71 -6t46 -55t-6 -71l-102 -195q-18 -34 -55 -45q-37 -12 -72 6q-34 18 -45 55z" />
<glyph unicode="&#x201c;" horiz-adv-x="741" d="M62 1315q-12 37 6 71l102 195q18 34 55 45q37 12 71 -6t46 -55t-6 -71l-102 -195q-18 -34 -55 -45q-37 -12 -72 6q-34 18 -45 55zM399 1315q-12 37 6 71l102 195q18 34 55 45q37 12 71 -6t46 -55t-6 -71l-102 -195q-18 -34 -55 -45q-37 -12 -72 6q-34 18 -45 55z" />
<glyph unicode="&#x201d;" horiz-adv-x="741" d="M62 1315q-12 37 6 71l102 195q18 34 55 45q37 12 71 -6t46 -55t-6 -71l-102 -195q-18 -34 -55 -45q-37 -12 -72 6q-34 18 -45 55zM399 1315q-12 37 6 71l102 195q18 34 55 45q37 12 71 -6t46 -55t-6 -71l-102 -195q-18 -34 -55 -45q-37 -12 -72 6q-34 18 -45 55z" />
<glyph unicode="&#x201e;" horiz-adv-x="741" d="M62 -152q-12 37 6 71l102 195q18 34 55 45q37 12 71 -6t46 -55t-6 -71l-102 -195q-18 -34 -55 -45q-37 -12 -72 6q-34 18 -45 55zM399 -152q-12 37 6 71l102 195q18 34 55 45q37 12 71 -6t46 -55t-6 -71l-102 -195q-18 -34 -55 -45q-37 -12 -72 6q-34 18 -45 55z" />
<glyph unicode="&#x2026;" horiz-adv-x="1035" d="M50 707q0 43 31 74t75 31q43 0 74 -31t31 -74q0 -44 -31 -75t-74 -31q-44 0 -75 31t-31 75zM414 707q0 43 31 74t75 31q43 0 74 -31t31 -74q0 -44 -31 -75t-74 -31q-44 0 -75 31t-31 75zM774 707q0 43 31 74t75 31q43 0 74 -31t31 -74q0 -44 -31 -75t-74 -31 q-44 0 -75 31t-31 75z" />
<glyph unicode="&#x202f;" horiz-adv-x="406" />
<glyph unicode="&#x2039;" horiz-adv-x="779" d="M55 636q8 -33 34 -53l486 -362q31 -23 69 -18q39 6 62 37t17 69q-5 38 -36 62l-386 288l386 288q31 23 36 62q6 38 -17 69t-62 37q-38 5 -69 -18l-486 -362q-26 -20 -34 -53q-5 -22 0 -46z" />
<glyph unicode="&#x203a;" horiz-adv-x="779" d="M56 309q-6 -38 17 -69t62 -37q38 -5 69 18l486 362q26 20 34 53q5 24 0 46q-8 33 -34 53l-486 362q-31 23 -69 18q-39 -6 -62 -37t-17 -69q5 -39 36 -62l386 -288l-386 -288q-31 -24 -36 -62z" />
<glyph unicode="&#x205f;" horiz-adv-x="507" />
<glyph unicode="&#x20ac;" horiz-adv-x="1013" d="M70 580q0 -39 27 -66q28 -28 67 -28h20v-107q0 -157 111 -268t268 -111h6q123 0 223 73q97 71 135 184q16 45 -13 83q-28 39 -76 39q-67 0 -88 -62q-19 -57 -68 -93q-51 -37 -113 -37h-6q-79 0 -136 56q-56 56 -56 136v107h237q39 0 66 28q28 27 28 66t-28 66 q-27 28 -66 28h-237v85h237q39 0 67 28q27 27 27 66q0 38 -27 66q-28 27 -67 27h-237v149q0 79 56 136q57 56 136 56h6q62 0 113 -37q49 -36 68 -93q21 -62 88 -62q48 0 76 39q29 38 13 83q-38 113 -135 184q-100 73 -223 73h-6q-157 0 -268 -111t-111 -268v-149h-20 q-39 0 -67 -28q-27 -27 -27 -66t27 -66q28 -27 67 -27h20v-85h-20q-39 0 -67 -28q-27 -27 -27 -66z" />
<glyph unicode="&#x2122;" horiz-adv-x="1225" d="M50 1400q0 -26 19 -45q18 -18 44 -18h122v-505q0 -26 19 -45q18 -18 44 -18q27 0 45 18q19 19 19 45v505h121q27 0 45 18q19 19 19 45q0 27 -19 45q-18 19 -45 19h-370q-26 0 -44 -19q-19 -18 -19 -45zM577 832q0 -26 19 -45q18 -18 45 -18q26 0 44 18q19 19 19 45v307 l107 -209q2 -3 5 -6q8 -11 20 -17q23 -12 48 -4t37 31l107 206v-308q0 -26 18 -45q19 -18 45 -18t45 18q19 19 19 45v568q0 27 -19 45q-19 19 -45 19q-35 0 -54 -31l-2 -4l-170 -327l-168 327q-1 1 -2 4q-19 31 -54 31q-27 0 -45 -19q-19 -18 -19 -45v-568z" />
<glyph unicode="&#x25fc;" horiz-adv-x="1015" d="M0 0v1015h1015v-1015h-1015z" />
</font>
</defs>
</svg>
